<svg id="my-svg" width="100%" xmlns="http://www.w3.org/2000/svg" xmlns:xlink="http://www.w3.org/1999/xlink" class="flowchart" style="max-width: 586px; background-color: white;" viewBox="0 0 586 1535.578125" role="graphics-document document" aria-roledescription="flowchart-v2"><style>#my-svg{font-family:"trebuchet ms",verdana,arial,sans-serif;font-size:16px;fill:#333;}@keyframes edge-animation-frame{from{stroke-dashoffset:0;}}@keyframes dash{to{stroke-dashoffset:0;}}#my-svg .edge-animation-slow{stroke-dasharray:9,5!important;stroke-dashoffset:900;animation:dash 50s linear infinite;stroke-linecap:round;}#my-svg .edge-animation-fast{stroke-dasharray:9,5!important;stroke-dashoffset:900;animation:dash 20s linear infinite;stroke-linecap:round;}#my-svg .error-icon{fill:#552222;}#my-svg .error-text{fill:#552222;stroke:#552222;}#my-svg .edge-thickness-normal{stroke-width:1px;}#my-svg .edge-thickness-thick{stroke-width:3.5px;}#my-svg .edge-pattern-solid{stroke-dasharray:0;}#my-svg .edge-thickness-invisible{stroke-width:0;fill:none;}#my-svg .edge-pattern-dashed{stroke-dasharray:3;}#my-svg .edge-pattern-dotted{stroke-dasharray:2;}#my-svg .marker{fill:#333333;stroke:#333333;}#my-svg .marker.cross{stroke:#333333;}#my-svg svg{font-family:"trebuchet ms",verdana,arial,sans-serif;font-size:16px;}#my-svg p{margin:0;}#my-svg .label{font-family:"trebuchet ms",verdana,arial,sans-serif;color:#333;}#my-svg .cluster-label text{fill:#333;}#my-svg .cluster-label span{color:#333;}#my-svg .cluster-label span p{background-color:transparent;}#my-svg .label text,#my-svg span{fill:#333;color:#333;}#my-svg .node rect,#my-svg .node circle,#my-svg .node ellipse,#my-svg .node polygon,#my-svg .node path{fill:#ECECFF;stroke:#9370DB;stroke-width:1px;}#my-svg .rough-node .label text,#my-svg .node .label text,#my-svg .image-shape .label,#my-svg .icon-shape .label{text-anchor:middle;}#my-svg .node .katex path{fill:#000;stroke:#000;stroke-width:1px;}#my-svg .rough-node .label,#my-svg .node .label,#my-svg .image-shape .label,#my-svg .icon-shape .label{text-align:center;}#my-svg .node.clickable{cursor:pointer;}#my-svg .root .anchor path{fill:#333333!important;stroke-width:0;stroke:#333333;}#my-svg .arrowheadPath{fill:#333333;}#my-svg .edgePath .path{stroke:#333333;stroke-width:1px;}#my-svg .flowchart-link{stroke:#333333;fill:none;}#my-svg .edgeLabel{background-color:rgba(232,232,232, 0.8);text-align:center;}#my-svg .edgeLabel p{background-color:rgba(232,232,232, 0.8);}#my-svg .edgeLabel rect{opacity:0.5;background-color:rgba(232,232,232, 0.8);fill:rgba(232,232,232, 0.8);}#my-svg .labelBkg{background-color:rgba(232, 232, 232, 0.5);}#my-svg .cluster rect{fill:#ffffde;stroke:#aaaa33;stroke-width:1px;}#my-svg .cluster text{fill:#333;}#my-svg .cluster span{color:#333;}#my-svg div.mermaidTooltip{position:absolute;text-align:center;max-width:200px;padding:2px;font-family:"trebuchet ms",verdana,arial,sans-serif;font-size:12px;background:hsl(80, 100%, 96.2745098039%);border:1px solid #aaaa33;border-radius:2px;pointer-events:none;z-index:100;}#my-svg .flowchartTitleText{text-anchor:middle;font-size:18px;fill:#333;}#my-svg rect.text{fill:none;stroke-width:0;}#my-svg .icon-shape,#my-svg .image-shape{background-color:rgba(232,232,232, 0.8);text-align:center;}#my-svg .icon-shape p,#my-svg .image-shape p{background-color:rgba(232,232,232, 0.8);padding:2px;}#my-svg .icon-shape .label rect,#my-svg .image-shape .label rect{opacity:0.5;background-color:rgba(232,232,232, 0.8);fill:rgba(232,232,232, 0.8);}#my-svg .label-icon{display:inline-block;height:1em;overflow:visible;vertical-align:-0.125em;}#my-svg .node .label-icon path{fill:currentColor;stroke:revert;stroke-width:revert;}#my-svg .node .neo-node{stroke:#9370DB;}#my-svg [data-look="neo"].node rect,#my-svg [data-look="neo"].cluster rect,#my-svg [data-look="neo"].node polygon{stroke:#9370DB;filter:drop-shadow(1px 2px 2px rgba(185, 185, 185, 1));}#my-svg [data-look="neo"].node path{stroke:#9370DB;stroke-width:1px;}#my-svg [data-look="neo"].node .outer-path{filter:drop-shadow(1px 2px 2px rgba(185, 185, 185, 1));}#my-svg [data-look="neo"].node .neo-line path{stroke:#9370DB;filter:none;}#my-svg [data-look="neo"].node circle{stroke:#9370DB;filter:drop-shadow(1px 2px 2px rgba(185, 185, 185, 1));}#my-svg [data-look="neo"].node circle .state-start{fill:#000000;}#my-svg [data-look="neo"].icon-shape .icon{fill:#9370DB;filter:drop-shadow(1px 2px 2px rgba(185, 185, 185, 1));}#my-svg [data-look="neo"].icon-shape .icon-neo path{stroke:#9370DB;filter:drop-shadow(1px 2px 2px rgba(185, 185, 185, 1));}#my-svg :root{--mermaid-font-family:"trebuchet ms",verdana,arial,sans-serif;}#my-svg .new&gt;*{fill:#e1f5ff!important;stroke:#0277bd!important;stroke-width:2px!important;}#my-svg .new span{fill:#e1f5ff!important;stroke:#0277bd!important;stroke-width:2px!important;}</style><g><marker id="my-svg_flowchart-v2-pointEnd" class="marker flowchart-v2" viewBox="0 0 10 10" refX="5" refY="5" markerUnits="userSpaceOnUse" markerWidth="8" markerHeight="8" orient="auto"><path d="M 0 0 L 10 5 L 0 10 z" class="arrowMarkerPath" style="stroke-width: 1; stroke-dasharray: 1, 0;"/></marker><marker id="my-svg_flowchart-v2-pointStart" class="marker flowchart-v2" viewBox="0 0 10 10" refX="4.5" refY="5" markerUnits="userSpaceOnUse" markerWidth="8" markerHeight="8" orient="auto"><path d="M 0 5 L 10 10 L 10 0 z" class="arrowMarkerPath" style="stroke-width: 1; stroke-dasharray: 1, 0;"/></marker><marker id="my-svg_flowchart-v2-pointEnd-margin" class="marker flowchart-v2" viewBox="0 0 11.5 14" refX="11.5" refY="7" markerUnits="userSpaceOnUse" markerWidth="10.5" markerHeight="14" orient="auto"><path d="M 0 0 L 11.5 7 L 0 14 z" class="arrowMarkerPath" style="stroke-width: 0; stroke-dasharray: 1, 0;"/></marker><marker id="my-svg_flowchart-v2-pointStart-margin" class="marker flowchart-v2" viewBox="0 0 11.5 14" refX="1" refY="7" markerUnits="userSpaceOnUse" markerWidth="11.5" markerHeight="14" orient="auto"><polygon points="0,7 11.5,14 11.5,0" class="arrowMarkerPath" style="stroke-width: 0; stroke-dasharray: 1, 0;"/></marker><marker id="my-svg_flowchart-v2-circleEnd" class="marker flowchart-v2" viewBox="0 0 10 10" refX="11" refY="5" markerUnits="userSpaceOnUse" markerWidth="11" markerHeight="11" orient="auto"><circle cx="5" cy="5" r="5" class="arrowMarkerPath" style="stroke-width: 1; stroke-dasharray: 1, 0;"/></marker><marker id="my-svg_flowchart-v2-circleStart" class="marker flowchart-v2" viewBox="0 0 10 10" refX="-1" refY="5" markerUnits="userSpaceOnUse" markerWidth="11" markerHeight="11" orient="auto"><circle cx="5" cy="5" r="5" class="arrowMarkerPath" style="stroke-width: 1; stroke-dasharray: 1, 0;"/></marker><marker id="my-svg_flowchart-v2-circleEnd-margin" class="marker flowchart-v2" viewBox="0 0 10 10" refY="5" refX="12.25" markerUnits="userSpaceOnUse" markerWidth="14" markerHeight="14" orient="auto"><circle cx="5" cy="5" r="5" class="arrowMarkerPath" style="stroke-width: 0; stroke-dasharray: 1, 0;"/></marker><marker id="my-svg_flowchart-v2-circleStart-margin" class="marker flowchart-v2" viewBox="0 0 10 10" refX="-2" refY="5" markerUnits="userSpaceOnUse" markerWidth="14" markerHeight="14" orient="auto"><circle cx="5" cy="5" r="5" class="arrowMarkerPath" style="stroke-width: 0; stroke-dasharray: 1, 0;"/></marker><marker id="my-svg_flowchart-v2-crossEnd" class="marker cross flowchart-v2" viewBox="0 0 11 11" refX="12" refY="5.2" markerUnits="userSpaceOnUse" markerWidth="11" markerHeight="11" orient="auto"><path d="M 1,1 l 9,9 M 10,1 l -9,9" class="arrowMarkerPath" style="stroke-width: 2; stroke-dasharray: 1, 0;"/></marker><marker id="my-svg_flowchart-v2-crossStart" class="marker cross flowchart-v2" viewBox="0 0 11 11" refX="-1" refY="5.2" markerUnits="userSpaceOnUse" markerWidth="11" markerHeight="11" orient="auto"><path d="M 1,1 l 9,9 M 10,1 l -9,9" class="arrowMarkerPath" style="stroke-width: 2; stroke-dasharray: 1, 0;"/></marker><marker id="my-svg_flowchart-v2-crossEnd-margin" class="marker cross flowchart-v2" viewBox="0 0 15 15" refX="17.7" refY="7.5" markerUnits="userSpaceOnUse" markerWidth="12" markerHeight="12" orient="auto"><path d="M 1,1 L 14,14 M 1,14 L 14,1" class="arrowMarkerPath" style="stroke-width: 2.5;"/></marker><marker id="my-svg_flowchart-v2-crossStart-margin" class="marker cross flowchart-v2" viewBox="0 0 15 15" refX="-3.5" refY="7.5" markerUnits="userSpaceOnUse" markerWidth="12" markerHeight="12" orient="auto"><path d="M 1,1 L 14,14 M 1,14 L 14,1" class="arrowMarkerPath" style="stroke-width: 2.5; stroke-dasharray: 1, 0;"/></marker><g class="root"><g class="clusters"/><g class="edgePaths"><path d="M240.842,138.42L223.702,151.28C206.562,164.14,172.281,189.859,155.14,206.219C138,222.578,138,229.578,138,233.078L138,236.578" id="my-svg-L_START_BOOT_0" class="edge-thickness-normal edge-pattern-solid edge-thickness-normal edge-pattern-solid flowchart-link" style=";" data-edge="true" data-et="edge" data-id="L_START_BOOT_0" data-points="W3sieCI6MjQwLjg0MjMzMjYxMzM5MDk0LCJ5IjoxMzguNDIwNDU3NjEzMzkwOTR9LHsieCI6MTM4LCJ5IjoyMTUuNTc4MTI1fSx7IngiOjEzOCwieSI6MjQwLjU3ODEyNX1d" data-look="classic" marker-end="url(#my-svg_flowchart-v2-pointEnd)"/><path d="M138,318.578L138,322.745C138,326.911,138,335.245,138,342.911C138,350.578,138,357.578,138,361.078L138,364.578" id="my-svg-L_BOOT_MAT_0" class="edge-thickness-normal edge-pattern-solid edge-thickness-normal edge-pattern-solid flowchart-link" style=";" data-edge="true" data-et="edge" data-id="L_BOOT_MAT_0" data-points="W3sieCI6MTM4LCJ5IjozMTguNTc4MTI1fSx7IngiOjEzOCwieSI6MzQzLjU3ODEyNX0seyJ4IjoxMzgsInkiOjM2OC41NzgxMjV9XQ==" data-look="classic" marker-end="url(#my-svg_flowchart-v2-pointEnd)"/><path d="M138,470.578L138,474.745C138,478.911,138,487.245,147.475,495.324C156.95,503.403,175.9,511.227,185.375,515.139L194.85,519.052" id="my-svg-L_MAT_SOURCE_0" class="edge-thickness-normal edge-pattern-solid edge-thickness-normal edge-pattern-solid flowchart-link" style=";" data-edge="true" data-et="edge" data-id="L_MAT_SOURCE_0" data-points="W3sieCI6MTM4LCJ5Ijo0NzAuNTc4MTI1fSx7IngiOjEzOCwieSI6NDk1LjU3ODEyNX0seyJ4IjoxOTguNTQ2ODc1LCJ5Ijo1MjAuNTc4MTI1fV0=" data-look="classic" marker-end="url(#my-svg_flowchart-v2-pointEnd)"/><path d="M345.158,138.42L362.298,151.28C379.438,164.14,413.719,189.859,430.86,206.219C448,222.578,448,229.578,448,233.078L448,236.578" id="my-svg-L_START_CLONE_0" class="edge-thickness-normal edge-pattern-solid edge-thickness-normal edge-pattern-solid flowchart-link" style=";" data-edge="true" data-et="edge" data-id="L_START_CLONE_0" data-points="W3sieCI6MzQ1LjE1NzY2NzM4NjYwOTEsInkiOjEzOC40MjA0NTc2MTMzOTA5NH0seyJ4Ijo0NDgsInkiOjIxNS41NzgxMjV9LHsieCI6NDQ4LCJ5IjoyNDAuNTc4MTI1fV0=" data-look="classic" marker-end="url(#my-svg_flowchart-v2-pointEnd)"/><path d="M448,318.578L448,322.745C448,326.911,448,335.245,448,342.911C448,350.578,448,357.578,448,361.078L448,364.578" id="my-svg-L_CLONE_PYTHON_0" class="edge-thickness-normal edge-pattern-solid edge-thickness-normal edge-pattern-solid flowchart-link" style=";" data-edge="true" data-et="edge" data-id="L_CLONE_PYTHON_0" data-points="W3sieCI6NDQ4LCJ5IjozMTguNTc4MTI1fSx7IngiOjQ0OCwieSI6MzQzLjU3ODEyNX0seyJ4Ijo0NDgsInkiOjM2OC41NzgxMjV9XQ==" data-look="classic" marker-end="url(#my-svg_flowchart-v2-pointEnd)"/><path d="M448,470.578L448,474.745C448,478.911,448,487.245,438.525,495.324C429.05,503.403,410.1,511.227,400.625,515.139L391.15,519.052" id="my-svg-L_PYTHON_SOURCE_0" class="edge-thickness-normal edge-pattern-solid edge-thickness-normal edge-pattern-solid flowchart-link" style=";" data-edge="true" data-et="edge" data-id="L_PYTHON_SOURCE_0" data-points="W3sieCI6NDQ4LCJ5Ijo0NzAuNTc4MTI1fSx7IngiOjQ0OCwieSI6NDk1LjU3ODEyNX0seyJ4IjozODcuNDUzMTI1LCJ5Ijo1MjAuNTc4MTI1fV0=" data-look="classic" marker-end="url(#my-svg_flowchart-v2-pointEnd)"/><path d="M293,598.578L293,602.745C293,606.911,293,615.245,293,622.911C293,630.578,293,637.578,293,641.078L293,644.578" id="my-svg-L_SOURCE_COPY_0" class="edge-thickness-normal edge-pattern-solid edge-thickness-normal edge-pattern-solid flowchart-link" style=";" data-edge="true" data-et="edge" data-id="L_SOURCE_COPY_0" data-points="W3sieCI6MjkzLCJ5Ijo1OTguNTc4MTI1fSx7IngiOjI5MywieSI6NjIzLjU3ODEyNX0seyJ4IjoyOTMsInkiOjY0OC41NzgxMjV9XQ==" data-look="classic" marker-end="url(#my-svg_flowchart-v2-pointEnd)"/><path d="M293,726.578L293,730.745C293,734.911,293,743.245,293,750.911C293,758.578,293,765.578,293,769.078L293,772.578" id="my-svg-L_COPY_CHK_0" class="edge-thickness-normal edge-pattern-solid edge-thickness-normal edge-pattern-solid flowchart-link" style=";" data-edge="true" data-et="edge" data-id="L_COPY_CHK_0" data-points="W3sieCI6MjkzLCJ5Ijo3MjYuNTc4MTI1fSx7IngiOjI5MywieSI6NzUxLjU3ODEyNX0seyJ4IjoyOTMsInkiOjc3Ni41NzgxMjV9XQ==" data-look="classic" marker-end="url(#my-svg_flowchart-v2-pointEnd)"/><path d="M293,854.578L293,858.745C293,862.911,293,871.245,293,878.911C293,886.578,293,893.578,293,897.078L293,900.578" id="my-svg-L_CHK_VENV_0" class="edge-thickness-normal edge-pattern-solid edge-thickness-normal edge-pattern-solid flowchart-link" style=";" data-edge="true" data-et="edge" data-id="L_CHK_VENV_0" data-points="W3sieCI6MjkzLCJ5Ijo4NTQuNTc4MTI1fSx7IngiOjI5MywieSI6ODc5LjU3ODEyNX0seyJ4IjoyOTMsInkiOjkwNC41NzgxMjV9XQ==" data-look="classic" marker-end="url(#my-svg_flowchart-v2-pointEnd)"/><path d="M293,982.578L293,986.745C293,990.911,293,999.245,293,1006.911C293,1014.578,293,1021.578,293,1025.078L293,1028.578" id="my-svg-L_VENV_PIP_0" class="edge-thickness-normal edge-pattern-solid edge-thickness-normal edge-pattern-solid flowchart-link" style=";" data-edge="true" data-et="edge" data-id="L_VENV_PIP_0" data-points="W3sieCI6MjkzLCJ5Ijo5ODIuNTc4MTI1fSx7IngiOjI5MywieSI6MTAwNy41NzgxMjV9LHsieCI6MjkzLCJ5IjoxMDMyLjU3ODEyNX1d" data-look="classic" marker-end="url(#my-svg_flowchart-v2-pointEnd)"/><path d="M293,1158.578L293,1162.745C293,1166.911,293,1175.245,293,1182.911C293,1190.578,293,1197.578,293,1201.078L293,1204.578" id="my-svg-L_PIP_VERIFY_0" class="edge-thickness-normal edge-pattern-solid edge-thickness-normal edge-pattern-solid flowchart-link" style=";" data-edge="true" data-et="edge" data-id="L_PIP_VERIFY_0" data-points="W3sieCI6MjkzLCJ5IjoxMTU4LjU3ODEyNX0seyJ4IjoyOTMsInkiOjExODMuNTc4MTI1fSx7IngiOjI5MywieSI6MTIwOC41NzgxMjV9XQ==" data-look="classic" marker-end="url(#my-svg_flowchart-v2-pointEnd)"/><path d="M293,1286.578L293,1290.745C293,1294.911,293,1303.245,293,1310.911C293,1318.578,293,1325.578,293,1329.078L293,1332.578" id="my-svg-L_VERIFY_KEY_0" class="edge-thickness-normal edge-pattern-solid edge-thickness-normal edge-pattern-solid flowchart-link" style=";" data-edge="true" data-et="edge" data-id="L_VERIFY_KEY_0" data-points="W3sieCI6MjkzLCJ5IjoxMjg2LjU3ODEyNX0seyJ4IjoyOTMsInkiOjEzMTEuNTc4MTI1fSx7IngiOjI5MywieSI6MTMzNi41NzgxMjV9XQ==" data-look="classic" marker-end="url(#my-svg_flowchart-v2-pointEnd)"/><path d="M293,1438.578L293,1442.745C293,1446.911,293,1455.245,293.07,1462.995C293.141,1470.745,293.281,1477.912,293.351,1481.495L293.422,1485.079" id="my-svg-L_KEY_DONE_0" class="edge-thickness-normal edge-pattern-solid edge-thickness-normal edge-pattern-solid flowchart-link" style=";" data-edge="true" data-et="edge" data-id="L_KEY_DONE_0" data-points="W3sieCI6MjkzLCJ5IjoxNDM4LjU3ODEyNX0seyJ4IjoyOTMsInkiOjE0NjMuNTc4MTI1fSx7IngiOjI5My41LCJ5IjoxNDg5LjA3ODEyNX1d" data-look="classic" marker-end="url(#my-svg_flowchart-v2-pointEnd)"/></g><g class="edgeLabels"><g class="edgeLabel"><g class="label" data-id="L_START_BOOT_0" transform="translate(0, 0)"><foreignObject width="0" height="0"><div xmlns="http://www.w3.org/1999/xhtml" class="labelBkg" style="display: table-cell; white-space: nowrap; line-height: 1.5; max-width: 200px; text-align: center;"><span class="edgeLabel"></span></div></foreignObject></g></g><g class="edgeLabel"><g class="label" data-id="L_BOOT_MAT_0" transform="translate(0, 0)"><foreignObject width="0" height="0"><div xmlns="http://www.w3.org/1999/xhtml" class="labelBkg" style="display: table-cell; white-space: nowrap; line-height: 1.5; max-width: 200px; text-align: center;"><span class="edgeLabel"></span></div></foreignObject></g></g><g class="edgeLabel"><g class="label" data-id="L_MAT_SOURCE_0" transform="translate(0, 0)"><foreignObject width="0" height="0"><div xmlns="http://www.w3.org/1999/xhtml" class="labelBkg" style="display: table-cell; white-space: nowrap; line-height: 1.5; max-width: 200px; text-align: center;"><span class="edgeLabel"></span></div></foreignObject></g></g><g class="edgeLabel"><g class="label" data-id="L_START_CLONE_0" transform="translate(0, 0)"><foreignObject width="0" height="0"><div xmlns="http://www.w3.org/1999/xhtml" class="labelBkg" style="display: table-cell; white-space: nowrap; line-height: 1.5; max-width: 200px; text-align: center;"><span class="edgeLabel"></span></div></foreignObject></g></g><g class="edgeLabel"><g class="label" data-id="L_CLONE_PYTHON_0" transform="translate(0, 0)"><foreignObject width="0" height="0"><div xmlns="http://www.w3.org/1999/xhtml" class="labelBkg" style="display: table-cell; white-space: nowrap; line-height: 1.5; max-width: 200px; text-align: center;"><span class="edgeLabel"></span></div></foreignObject></g></g><g class="edgeLabel"><g class="label" data-id="L_PYTHON_SOURCE_0" transform="translate(0, 0)"><foreignObject width="0" height="0"><div xmlns="http://www.w3.org/1999/xhtml" class="labelBkg" style="display: table-cell; white-space: nowrap; line-height: 1.5; max-width: 200px; text-align: center;"><span class="edgeLabel"></span></div></foreignObject></g></g><g class="edgeLabel"><g class="label" data-id="L_SOURCE_COPY_0" transform="translate(0, 0)"><foreignObject width="0" height="0"><div xmlns="http://www.w3.org/1999/xhtml" class="labelBkg" style="display: table-cell; white-space: nowrap; line-height: 1.5; max-width: 200px; text-align: center;"><span class="edgeLabel"></span></div></foreignObject></g></g><g class="edgeLabel"><g class="label" data-id="L_COPY_CHK_0" transform="translate(0, 0)"><foreignObject width="0" height="0"><div xmlns="http://www.w3.org/1999/xhtml" class="labelBkg" style="display: table-cell; white-space: nowrap; line-height: 1.5; max-width: 200px; text-align: center;"><span class="edgeLabel"></span></div></foreignObject></g></g><g class="edgeLabel"><g class="label" data-id="L_CHK_VENV_0" transform="translate(0, 0)"><foreignObject width="0" height="0"><div xmlns="http://www.w3.org/1999/xhtml" class="labelBkg" style="display: table-cell; white-space: nowrap; line-height: 1.5; max-width: 200px; text-align: center;"><span class="edgeLabel"></span></div></foreignObject></g></g><g class="edgeLabel"><g class="label" data-id="L_VENV_PIP_0" transform="translate(0, 0)"><foreignObject width="0" height="0"><div xmlns="http://www.w3.org/1999/xhtml" class="labelBkg" style="display: table-cell; white-space: nowrap; line-height: 1.5; max-width: 200px; text-align: center;"><span class="edgeLabel"></span></div></foreignObject></g></g><g class="edgeLabel"><g class="label" data-id="L_PIP_VERIFY_0" transform="translate(0, 0)"><foreignObject width="0" height="0"><div xmlns="http://www.w3.org/1999/xhtml" class="labelBkg" style="display: table-cell; white-space: nowrap; line-height: 1.5; max-width: 200px; text-align: center;"><span class="edgeLabel"></span></div></foreignObject></g></g><g class="edgeLabel"><g class="label" data-id="L_VERIFY_KEY_0" transform="translate(0, 0)"><foreignObject width="0" height="0"><div xmlns="http://www.w3.org/1999/xhtml" class="labelBkg" style="display: table-cell; white-space: nowrap; line-height: 1.5; max-width: 200px; text-align: center;"><span class="edgeLabel"></span></div></foreignObject></g></g><g class="edgeLabel"><g class="label" data-id="L_KEY_DONE_0" transform="translate(0, 0)"><foreignObject width="0" height="0"><div xmlns="http://www.w3.org/1999/xhtml" class="labelBkg" style="display: table-cell; white-space: nowrap; line-height: 1.5; max-width: 200px; text-align: center;"><span class="edgeLabel"></span></div></foreignObject></g></g></g><g class="nodes"><g class="node default" id="my-svg-flowchart-START-0" data-look="classic" transform="translate(293, 99.2890625)"><polygon points="91.2890625,0 182.578125,-91.2890625 91.2890625,-182.578125 0,-91.2890625" class="label-container" transform="translate(-90.7890625, 91.2890625)"/><g class="label" style="" transform="translate(-64.2890625, -12)"><rect/><foreignObject width="128.578125" height="24"><div xmlns="http://www.w3.org/1999/xhtml" style="display: table-cell; white-space: nowrap; line-height: 1.5; max-width: 200px; text-align: center;"><span class="nodeLabel"><p>Install entry point</p></span></div></foreignObject></g></g><g class="node default" id="my-svg-flowchart-BOOT-1" data-look="classic" transform="translate(138, 279.578125)"><rect class="basic label-container" style="" x="-96.0859375" y="-39" width="192.171875" height="78"/><g class="label" style="" transform="translate(-66.0859375, -24)"><rect/><foreignObject width="132.171875" height="48"><div xmlns="http://www.w3.org/1999/xhtml" style="display: table-cell; white-space: nowrap; line-height: 1.5; max-width: 200px; text-align: center;"><span class="nodeLabel"><p>uvx / pipx<br />gemini-skill-install</p></span></div></foreignObject></g></g><g class="node default new" id="my-svg-flowchart-MAT-2" data-look="classic" transform="translate(138, 419.578125)"><rect class="basic label-container" style="fill:#e1f5ff !important;stroke:#0277bd !important;stroke-width:2px !important" x="-130" y="-51" width="260" height="102"/><g class="label" style="" transform="translate(-100, -36)"><rect/><foreignObject width="200" height="72"><div xmlns="http://www.w3.org/1999/xhtml" style="display: table; white-space: break-spaces; line-height: 1.5; max-width: 200px; text-align: center; width: 200px;"><span class="nodeLabel"><p>Materialize packaged payload<br />to a temp directory</p></span></div></foreignObject></g></g><g class="node default" id="my-svg-flowchart-CLONE-3" data-look="classic" transform="translate(448, 279.578125)"><rect class="basic label-container" style="" x="-119.71875" y="-39" width="239.4375" height="78"/><g class="label" style="" transform="translate(-89.71875, -24)"><rect/><foreignObject width="179.4375" height="48"><div xmlns="http://www.w3.org/1999/xhtml" style="display: table-cell; white-space: nowrap; line-height: 1.5; max-width: 200px; text-align: center;"><span class="nodeLabel"><p>python3 setup/install.py<br />(clone or release tarball)</p></span></div></foreignObject></g></g><g class="node default new" id="my-svg-flowchart-PYTHON-4" data-look="classic" transform="translate(448, 419.578125)"><rect class="basic label-container" style="fill:#e1f5ff !important;stroke:#0277bd !important;stroke-width:2px !important" x="-130" y="-51" width="260" height="102"/><g class="label" style="" transform="translate(-100, -36)"><rect/><foreignObject width="200" height="72"><div xmlns="http://www.w3.org/1999/xhtml" style="display: table; white-space: break-spaces; line-height: 1.5; max-width: 200px; text-align: center; width: 200px;"><span class="nodeLabel"><p>Validate stable CPython 3.9+<br />and re-exec if needed</p></span></div></foreignObject></g></g><g class="node default" id="my-svg-flowchart-SOURCE-5" data-look="classic" transform="translate(293, 559.578125)"><rect class="basic label-container" style="" x="-130" y="-39" width="260" height="78"/><g class="label" style="" transform="translate(-100, -24)"><rect/><foreignObject width="200" height="48"><div xmlns="http://www.w3.org/1999/xhtml" style="display: table; white-space: break-spaces; line-height: 1.5; max-width: 200px; text-align: center; width: 200px;"><span class="nodeLabel"><p>Resolve shared install payload</p></span></div></foreignObject></g></g><g class="node default" id="my-svg-flowchart-COPY-6" data-look="classic" transform="translate(293, 687.578125)"><rect class="basic label-container" style="" x="-119.09375" y="-39" width="238.1875" height="78"/><g class="label" style="" transform="translate(-89.09375, -24)"><rect/><foreignObject width="178.1875" height="48"><div xmlns="http://www.w3.org/1999/xhtml" style="display: table-cell; white-space: nowrap; line-height: 1.5; max-width: 200px; text-align: center;"><span class="nodeLabel"><p>Copy runtime payload to<br />~/.claude/skills/gemini/</p></span></div></foreignObject></g></g><g class="node default new" id="my-svg-flowchart-CHK-7" data-look="classic" transform="translate(293, 815.578125)"><rect class="basic label-container" style="fill:#e1f5ff !important;stroke:#0277bd !important;stroke-width:2px !important" x="-110.640625" y="-39" width="221.28125" height="78"/><g class="label" style="" transform="translate(-80.640625, -24)"><rect/><foreignObject width="161.28125" height="48"><div xmlns="http://www.w3.org/1999/xhtml" style="display: table-cell; white-space: nowrap; line-height: 1.5; max-width: 200px; text-align: center;"><span class="nodeLabel"><p>Write .checksums.json<br />install manifest</p></span></div></foreignObject></g></g><g class="node default new" id="my-svg-flowchart-VENV-8" data-look="classic" transform="translate(293, 943.578125)"><rect class="basic label-container" style="fill:#e1f5ff !important;stroke:#0277bd !important;stroke-width:2px !important" x="-138.6015625" y="-39" width="277.203125" height="78"/><g class="label" style="" transform="translate(-108.6015625, -24)"><rect/><foreignObject width="217.203125" height="48"><div xmlns="http://www.w3.org/1999/xhtml" style="display: table; white-space: break-spaces; line-height: 1.5; max-width: 200px; text-align: center; width: 200px;"><span class="nodeLabel"><p>Create or reuse<br />~/.claude/skills/gemini/.venv</p></span></div></foreignObject></g></g><g class="node default new" id="my-svg-flowchart-PIP-9" data-look="classic" transform="translate(293, 1095.578125)"><rect class="basic label-container" style="fill:#e1f5ff !important;stroke:#0277bd !important;stroke-width:2px !important" x="-130" y="-63" width="260" height="126"/><g class="label" style="" transform="translate(-100, -48)"><rect/><foreignObject width="200" height="96"><div xmlns="http://www.w3.org/1999/xhtml" style="display: table; white-space: break-spaces; line-height: 1.5; max-width: 200px; text-align: center; width: 200px;"><span class="nodeLabel"><p>pip install -r setup/requirements.txt<br />(google-genai==1.33.0 pinned)</p></span></div></foreignObject></g></g><g class="node default new" id="my-svg-flowchart-VERIFY-10" data-look="classic" transform="translate(293, 1247.578125)"><rect class="basic label-container" style="fill:#e1f5ff !important;stroke:#0277bd !important;stroke-width:2px !important" x="-101.8203125" y="-39" width="203.640625" height="78"/><g class="label" style="" transform="translate(-71.8203125, -24)"><rect/><foreignObject width="143.640625" height="48"><div xmlns="http://www.w3.org/1999/xhtml" style="display: table-cell; white-space: nowrap; line-height: 1.5; max-width: 200px; text-align: center;"><span class="nodeLabel"><p>Import google.genai<br />confirm SDK usable</p></span></div></foreignObject></g></g><g class="node default new" id="my-svg-flowchart-KEY-11" data-look="classic" transform="translate(293, 1387.578125)"><rect class="basic label-container" style="fill:#e1f5ff !important;stroke:#0277bd !important;stroke-width:2px !important" x="-130" y="-51" width="260" height="102"/><g class="label" style="" transform="translate(-100, -36)"><rect/><foreignObject width="200" height="72"><div xmlns="http://www.w3.org/1999/xhtml" style="display: table; white-space: break-spaces; line-height: 1.5; max-width: 200px; text-align: center; width: 200px;"><span class="nodeLabel"><p>Prompt / merge env block into<br />~/.claude/settings.json</p></span></div></foreignObject></g></g><g class="node default" id="my-svg-flowchart-DONE-12" data-look="classic" transform="translate(293, 1508.078125)"><g class="basic label-container outer-path"><path d="M-50.828125 -19.5 C-17.34812019755624 -19.5, 16.131884604887517 -19.5, 50.828125 -19.5 C50.828125 -19.5, 50.828125 -19.5, 50.828125 -19.5 C51.31814808320977 -19.484285913493533, 51.80817116641954 -19.468571826987066, 52.0774942896239 -19.45993515863156 C52.46376839262486 -19.422671760477634, 52.850042495625814 -19.38540836232371, 53.321729652847864 -19.3399052695533 C53.670325152334016 -19.28354705259485, 54.018920651820174 -19.227188835636404, 54.55571825967676 -19.140403561325776 C54.80426210697595 -19.083675050079915, 55.05280595427513 -19.026946538834054, 55.77438938623539 -18.862249829261074 C56.05514538239607 -18.778922923318884, 56.33590137855674 -18.69559601737669, 56.972735251460605 -18.50658706670804 C57.295717082452015 -18.387726767291884, 57.618698913443424 -18.26886646787573, 58.1458315951478 -18.074876768247425 C58.520158969377846 -17.909173143702812, 58.89448634360789 -17.7434695191582, 59.28885791279238 -17.568892924097174 C59.56612412343997 -17.42424331959981, 59.84339033408756 -17.279593715102447, 60.39711726407678 -16.990714730406097 C60.730243776050756 -16.788771481178795, 61.06337028802472 -16.58682823195149, 61.4660555736057 -16.342718045390892 C61.786033245516116 -16.119515473076355, 62.10601091742653 -15.896312900761815, 62.49128034457871 -15.627565626425154 C62.7644040252494 -15.409756759216664, 63.037527705920084 -15.191947892008175, 63.468578708501866 -14.848196188198123 C63.6900840213275 -14.647030923799303, 63.911589334153135 -14.445865659400484, 64.39393473676799 -14.007812326905688 C64.65956133657072 -13.733531054259945, 64.92518793637345 -13.459249781614202, 65.26354594296865 -13.10986736009568 C65.49916908342323 -12.833091011981221, 65.73479222387782 -12.556314663866761, 66.07383890812658 -12.158051136245305 C66.3228840471638 -11.82435333841434, 66.57192918620102 -11.490655540583376, 66.82148396464063 -11.156274872382312 C67.04521209532516 -10.81256838423588, 67.26894022600969 -10.468861896089447, 67.50340887860425 -10.108655082055241 C67.71547550120268 -9.732109319557635, 67.92754212380109 -9.35556355706003, 68.1168114742735 -9.019496659696287 C68.29204909983542 -8.655611980732424, 68.46728672539734 -8.291727301768558, 68.65917114880834 -7.893275190886684 C68.7768828713231 -7.602524960473904, 68.89459459383785 -7.311774730061123, 69.12825922997033 -6.734618561215508 C69.21272787509162 -6.480212460361102, 69.29719652021292 -6.225806359506697, 69.52214813421489 -5.548287939305138 C69.61485825811312 -5.194744056059318, 69.70756838201135 -4.8412001728134975, 69.83921928754556 -4.339158212148133 C69.89584288648689 -4.048407998986314, 69.9524664854282 -3.7576577858244953, 70.07816977658177 -3.1121979531509023 C70.13368005880916 -2.6816711659403687, 70.18919034103655 -2.251144378729835, 70.23801770250937 -1.872449005199798 C70.26394072462817 -1.46867701101254, 70.28986374674699 -1.064905016825282, 70.31810621591342 -0.6250057626472757 C70.31810621591342 -0.2740515731309771, 70.31810621591342 0.07690261638532148, 70.31810621591342 0.625005762647271 C70.30058334984719 0.8979385458318099, 70.28306048378094 1.1708713290163488, 70.23801770250937 1.8724490051997846 C70.1873359353527 2.265526783019933, 70.13665416819603 2.6586045608400806, 70.07816977658177 3.1121979531508885 C69.98559345396333 3.5875578037838802, 69.89301713134489 4.0629176544168715, 69.83921928754556 4.339158212148129 C69.77084412139367 4.599902354669764, 69.70246895524177 4.860646497191398, 69.52214813421489 5.548287939305125 C69.3952185406592 5.930579651610518, 69.26828894710351 6.312871363915912, 69.12825922997033 6.734618561215495 C69.02398959448135 6.992166576789509, 68.91971995899239 7.249714592363523, 68.65917114880834 7.893275190886679 C68.44704068067462 8.333768646831249, 68.23491021254091 8.77426210277582, 68.1168114742735 9.019496659696284 C67.98333288211445 9.256501416247769, 67.84985428995542 9.493506172799254, 67.50340887860425 10.108655082055236 C67.28517154562789 10.443926230436288, 67.06693421265153 10.779197378817342, 66.82148396464065 11.156274872382301 C66.5278620518214 11.54970148605354, 66.23424013900217 11.943128099724778, 66.07383890812659 12.158051136245302 C65.81770842323866 12.458916578032126, 65.56157793835072 12.759782019818951, 65.26354594296866 13.10986736009567 C65.05049814288775 13.329856705228899, 64.83745034280683 13.549846050362126, 64.39393473676799 14.007812326905684 C64.1672477479734 14.213683452319877, 63.940560759178815 14.419554577734068, 63.46857870850189 14.848196188198111 C63.14107220055375 15.109373912972554, 62.813565692605614 15.370551637746997, 62.49128034457871 15.627565626425152 C62.26774443750209 15.783494598488348, 62.04420853042547 15.939423570551543, 61.46605557360571 16.34271804539089 C61.22945355602434 16.4861475788765, 60.99285153844298 16.629577112362117, 60.39711726407678 16.990714730406093 C59.96451796783229 17.21640150616377, 59.5319186715878 17.44208828192145, 59.28885791279239 17.56889292409717 C58.93848689416894 17.72399178065478, 58.5881158755455 17.87909063721239, 58.145831595147804 18.07487676824742 C57.78746731572735 18.206758135757234, 57.42910303630689 18.338639503267046, 56.97273525146062 18.506587066708033 C56.625299950043534 18.60970404044351, 56.27786464862645 18.712821014178992, 55.77438938623541 18.86224982926107 C55.36363557769441 18.956001705641455, 54.95288176915341 19.04975358202184, 54.555718259676766 19.140403561325773 C54.206143039009824 19.19692017200688, 53.85656781834288 19.253436782687984, 53.32172965284788 19.3399052695533 C52.8325343176661 19.38709735519482, 52.343338982484326 19.434289440836334, 52.0774942896239 19.45993515863156 C51.692384661229774 19.47228487484374, 51.307275032835655 19.484634591055922, 50.82812500000001 19.5 C50.82812500000001 19.5, 50.828125 19.5, 50.828125 19.5 C10.171363867684818 19.5, -30.485397264630365 19.5, -50.82812499999999 19.5 C-51.150281409076754 19.489669071000318, -51.47243781815352 19.479338142000636, -52.07749428962389 19.45993515863156 C-52.36169106603675 19.43251903740764, -52.6458878424496 19.405102916183722, -53.32172965284787 19.3399052695533 C-53.80881771545535 19.261156649015263, -54.295905778062824 19.182408028477226, -54.55571825967676 19.140403561325773 C-54.849579892123 19.07333156134628, -55.14344152456925 19.00625956136679, -55.774389386235384 18.862249829261074 C-56.05855661356119 18.777910487814992, -56.34272384088698 18.69357114636891, -56.97273525146059 18.506587066708043 C-57.43971595951721 18.334733849420864, -57.906696667573826 18.162880632133685, -58.1458315951478 18.074876768247425 C-58.39937114831826 17.962642329042485, -58.65291070148873 17.850407889837545, -59.28885791279238 17.568892924097174 C-59.65448139789979 17.37814738610966, -60.0201048830072 17.187401848122143, -60.39711726407678 16.990714730406097 C-60.81028808486467 16.740248150783223, -61.22345890565256 16.48978157116035, -61.466055573605686 16.3427180453909 C-61.83383984891607 16.08616765605905, -62.20162412422646 15.8296172667272, -62.49128034457871 15.627565626425156 C-62.85651821926638 15.336298140749774, -63.22175609395405 15.04503065507439, -63.468578708501866 14.848196188198125 C-63.73080951390935 14.610045108973956, -63.99304031931683 14.37189402974979, -64.39393473676797 14.007812326905697 C-64.58853607829529 13.806870464711464, -64.78313741982262 13.605928602517231, -65.26354594296865 13.109867360095677 C-65.57490358392863 12.744128958272423, -65.8862612248886 12.378390556449167, -66.07383890812658 12.158051136245307 C-66.35216050738889 11.785125548853118, -66.6304821066512 11.412199961460928, -66.82148396464063 11.156274872382316 C-67.0279568350161 10.839077097756775, -67.23442970539156 10.521879323131232, -67.50340887860425 10.108655082055249 C-67.70431095997002 9.751933093048597, -67.9052130413358 9.395211104041948, -68.1168114742735 9.019496659696289 C-68.26236065797606 8.71726066548429, -68.40790984167862 8.415024671272292, -68.65917114880834 7.893275190886686 C-68.82296421009566 7.488703162783591, -68.98675727138298 7.084131134680495, -69.12825922997033 6.73461856121551 C-69.22473414304339 6.444051494229397, -69.32120905611644 6.153484427243285, -69.52214813421489 5.5482879393051325 C-69.60535579159139 5.230981079301674, -69.68856344896791 4.9136742192982155, -69.83921928754556 4.339158212148136 C-69.91111119920176 3.9700084401544427, -69.98300311085796 3.6008586681607495, -70.07816977658177 3.112197953150904 C-70.11370022728751 2.8366307937582964, -70.14923067799324 2.5610636343656887, -70.23801770250937 1.872449005199809 C-70.26068840160156 1.5193345673800924, -70.28335910069374 1.1662201295603758, -70.31810621591342 0.6250057626472781 C-70.31810621591342 0.25591829245997805, -70.31810621591342 -0.11316917772732205, -70.31810621591342 -0.6250057626472687 C-70.28984131593367 -1.0652543948485058, -70.26157641595391 -1.505503027049743, -70.23801770250937 -1.8724490051997822 C-70.2054587598694 -2.1249697348249432, -70.17289981722942 -2.3774904644501045, -70.07816977658177 -3.112197953150895 C-70.01365863715654 -3.4434490196653686, -69.94914749773129 -3.774700086179842, -69.83921928754556 -4.339158212148126 C-69.7664595550237 -4.616622606521524, -69.69369982250184 -4.894087000894921, -69.52214813421489 -5.548287939305123 C-69.38288291982406 -5.967732576151715, -69.24361770543321 -6.3871772129983055, -69.12825922997033 -6.734618561215485 C-68.97033702655524 -7.124689456868826, -68.81241482314017 -7.514760352522168, -68.65917114880834 -7.893275190886676 C-68.54051448658537 -8.139668288838537, -68.42185782436239 -8.386061386790399, -68.1168114742735 -9.019496659696282 C-67.8838029290061 -9.433226926492303, -67.65079438373867 -9.846957193288326, -67.50340887860425 -10.108655082055243 C-67.3002594934151 -10.420747090953865, -67.09711010822596 -10.732839099852487, -66.82148396464063 -11.156274872382308 C-66.6329337080009 -11.408915038997808, -66.44438345136116 -11.661555205613308, -66.07383890812659 -12.158051136245302 C-65.8653020671812 -12.40301037570216, -65.6567652262358 -12.647969615159015, -65.26354594296866 -13.10986736009567 C-65.06020112791889 -13.319837576554361, -64.85685631286911 -13.529807793013054, -64.39393473676799 -14.007812326905677 C-64.06761238321839 -14.304169654383074, -63.741290029668804 -14.600526981860472, -63.46857870850189 -14.848196188198107 C-63.09744837720162 -15.144162751217177, -62.726318045901365 -15.440129314236247, -62.49128034457872 -15.627565626425149 C-62.26152867694145 -15.787830443979514, -62.031777009304186 -15.948095261533878, -61.466055573605715 -16.342718045390885 C-61.112728652288794 -16.556906901472665, -60.75940173097188 -16.771095757554445, -60.39711726407679 -16.99071473040609 C-59.96439485231869 -17.216465735448356, -59.5316724405606 -17.442216740490622, -59.28885791279239 -17.56889292409717 C-58.88614292686812 -17.747162902250235, -58.48342794094385 -17.925432880403296, -58.145831595147804 -18.07487676824742 C-57.758388414524944 -18.217459440202134, -57.370945233902084 -18.360042112156847, -56.97273525146062 -18.506587066708033 C-56.63180989295833 -18.607771923557788, -56.29088453445604 -18.70895678040754, -55.77438938623541 -18.862249829261067 C-55.51025310658269 -18.922537211441494, -55.24611682692996 -18.98282459362192, -54.555718259676766 -19.140403561325773 C-54.288606081382035 -19.183588186826587, -54.0214939030873 -19.226772812327397, -53.32172965284788 -19.3399052695533 C-52.90390478275342 -19.380212332263387, -52.48607991265896 -19.42051939497347, -52.0774942896239 -19.45993515863156 C-51.77609655468032 -19.469600397356096, -51.474698819736744 -19.479265636080637, -50.82812500000001 -19.5 C-50.82812500000001 -19.5, -50.828125 -19.5, -50.828125 -19.5" stroke="none" stroke-width="0" fill="#ECECFF" style=""/><path d="M-50.828125 -19.5 C-11.539584547685571 -19.5, 27.748955904628858 -19.5, 50.828125 -19.5 M-50.828125 -19.5 C-22.174150684708508 -19.5, 6.479823630582985 -19.5, 50.828125 -19.5 M50.828125 -19.5 C50.828125 -19.5, 50.828125 -19.5, 50.828125 -19.5 M50.828125 -19.5 C50.828125 -19.5, 50.828125 -19.5, 50.828125 -19.5 M50.828125 -19.5 C51.289805320901706 -19.485194810714912, 51.75148564180341 -19.470389621429824, 52.0774942896239 -19.45993515863156 M50.828125 -19.5 C51.16962296889359 -19.489048824823055, 51.51112093778719 -19.47809764964611, 52.0774942896239 -19.45993515863156 M52.0774942896239 -19.45993515863156 C52.516528656548246 -19.417582041270446, 52.955563023472585 -19.37522892390933, 53.321729652847864 -19.3399052695533 M52.0774942896239 -19.45993515863156 C52.39882322243711 -19.42893694293765, 52.72015215525032 -19.39793872724374, 53.321729652847864 -19.3399052695533 M53.321729652847864 -19.3399052695533 C53.75779146283624 -19.269406177824223, 54.19385327282462 -19.198907086095144, 54.55571825967676 -19.140403561325776 M53.321729652847864 -19.3399052695533 C53.63820216277866 -19.28874044842866, 53.95467467270946 -19.237575627304018, 54.55571825967676 -19.140403561325776 M54.55571825967676 -19.140403561325776 C54.999749511780145 -19.03905632560789, 55.44378076388353 -18.937709089890003, 55.77438938623539 -18.862249829261074 M54.55571825967676 -19.140403561325776 C55.02582111480975 -19.03310565234949, 55.495923969942744 -18.92580774337321, 55.77438938623539 -18.862249829261074 M55.77438938623539 -18.862249829261074 C56.108936354687955 -18.76295804509723, 56.44348332314051 -18.66366626093338, 56.972735251460605 -18.50658706670804 M55.77438938623539 -18.862249829261074 C56.165572841952404 -18.746148632968126, 56.556756297669416 -18.630047436675177, 56.972735251460605 -18.50658706670804 M56.972735251460605 -18.50658706670804 C57.377391205759054 -18.357669934927575, 57.782047160057495 -18.20875280314711, 58.1458315951478 -18.074876768247425 M56.972735251460605 -18.50658706670804 C57.382785845356835 -18.355684657688087, 57.79283643925307 -18.204782248668135, 58.1458315951478 -18.074876768247425 M58.1458315951478 -18.074876768247425 C58.509723969207265 -17.91379240873505, 58.873616343266725 -17.75270804922267, 59.28885791279238 -17.568892924097174 M58.1458315951478 -18.074876768247425 C58.558845176779606 -17.89204790727162, 58.971858758411415 -17.709219046295818, 59.28885791279238 -17.568892924097174 M59.28885791279238 -17.568892924097174 C59.55216079177054 -17.431527980787813, 59.8154636707487 -17.294163037478448, 60.39711726407678 -16.990714730406097 M59.28885791279238 -17.568892924097174 C59.627254307364815 -17.39235174180197, 59.96565070193725 -17.215810559506767, 60.39711726407678 -16.990714730406097 M60.39711726407678 -16.990714730406097 C60.80641566655586 -16.742595633518885, 61.21571406903493 -16.49447653663167, 61.4660555736057 -16.342718045390892 M60.39711726407678 -16.990714730406097 C60.71710744420111 -16.7967348027437, 61.03709762432545 -16.602754875081303, 61.4660555736057 -16.342718045390892 M61.4660555736057 -16.342718045390892 C61.863458338038 -16.065507080211326, 62.2608611024703 -15.788296115031756, 62.49128034457871 -15.627565626425154 M61.4660555736057 -16.342718045390892 C61.76983390495776 -16.130815431791717, 62.07361223630981 -15.91891281819254, 62.49128034457871 -15.627565626425154 M62.49128034457871 -15.627565626425154 C62.69529161273403 -15.464872069039135, 62.899302880889344 -15.302178511653116, 63.468578708501866 -14.848196188198123 M62.49128034457871 -15.627565626425154 C62.850558704296596 -15.341050695348818, 63.209837064014486 -15.054535764272481, 63.468578708501866 -14.848196188198123 M63.468578708501866 -14.848196188198123 C63.66076726831422 -14.673655623207189, 63.85295582812657 -14.499115058216253, 64.39393473676799 -14.007812326905688 M63.468578708501866 -14.848196188198123 C63.72134134716288 -14.61864384749914, 63.97410398582388 -14.389091506800156, 64.39393473676799 -14.007812326905688 M64.39393473676799 -14.007812326905688 C64.60705432042134 -13.787748859340377, 64.8201739040747 -13.567685391775067, 65.26354594296865 -13.10986736009568 M64.39393473676799 -14.007812326905688 C64.62433070924517 -13.76990956946187, 64.85472668172235 -13.532006812018054, 65.26354594296865 -13.10986736009568 M65.26354594296865 -13.10986736009568 C65.51567775009973 -12.81369899273326, 65.76780955723082 -12.517530625370838, 66.07383890812658 -12.158051136245305 M65.26354594296865 -13.10986736009568 C65.46619868933755 -12.871819912942845, 65.66885143570643 -12.633772465790008, 66.07383890812658 -12.158051136245305 M66.07383890812658 -12.158051136245305 C66.29214390836015 -11.865542323926977, 66.51044890859372 -11.573033511608648, 66.82148396464063 -11.156274872382312 M66.07383890812658 -12.158051136245305 C66.22576457676843 -11.954484580978377, 66.37769024541026 -11.750918025711451, 66.82148396464063 -11.156274872382312 M66.82148396464063 -11.156274872382312 C67.0056292871826 -10.873378207015108, 67.18977460972457 -10.590481541647904, 67.50340887860425 -10.108655082055241 M66.82148396464063 -11.156274872382312 C66.97100941132783 -10.926563633066372, 67.12053485801502 -10.696852393750433, 67.50340887860425 -10.108655082055241 M67.50340887860425 -10.108655082055241 C67.70686937095799 -9.747390375272264, 67.91032986331172 -9.386125668489287, 68.1168114742735 -9.019496659696287 M67.50340887860425 -10.108655082055241 C67.69779094824298 -9.763510034092722, 67.89217301788173 -9.418364986130202, 68.1168114742735 -9.019496659696287 M68.1168114742735 -9.019496659696287 C68.28473892119436 -8.670791723093352, 68.45266636811523 -8.322086786490415, 68.65917114880834 -7.893275190886684 M68.1168114742735 -9.019496659696287 C68.32559837187164 -8.585946199509793, 68.53438526946978 -8.1523957393233, 68.65917114880834 -7.893275190886684 M68.65917114880834 -7.893275190886684 C68.83727086161579 -7.453365456928591, 69.01537057442323 -7.013455722970497, 69.12825922997033 -6.734618561215508 M68.65917114880834 -7.893275190886684 C68.84167327228128 -7.442491417469997, 69.02417539575423 -6.99170764405331, 69.12825922997033 -6.734618561215508 M69.12825922997033 -6.734618561215508 C69.25814272816666 -6.34343015877327, 69.388026226363 -5.9522417563310315, 69.52214813421489 -5.548287939305138 M69.12825922997033 -6.734618561215508 C69.21456080723557 -6.47469196078162, 69.3008623845008 -6.214765360347731, 69.52214813421489 -5.548287939305138 M69.52214813421489 -5.548287939305138 C69.64442725141011 -5.081984669335128, 69.76670636860533 -4.615681399365117, 69.83921928754556 -4.339158212148133 M69.52214813421489 -5.548287939305138 C69.58979898191335 -5.290305936968024, 69.65744982961182 -5.03232393463091, 69.83921928754556 -4.339158212148133 M69.83921928754556 -4.339158212148133 C69.92074213902372 -3.920555599668539, 70.00226499050189 -3.501952987188945, 70.07816977658177 -3.1121979531509023 M69.83921928754556 -4.339158212148133 C69.91316425257435 -3.959466444999184, 69.98710921760313 -3.579774677850235, 70.07816977658177 -3.1121979531509023 M70.07816977658177 -3.1121979531509023 C70.13617308039622 -2.662335782813992, 70.19417638421065 -2.212473612477082, 70.23801770250937 -1.872449005199798 M70.07816977658177 -3.1121979531509023 C70.14166523849582 -2.619739689142795, 70.20516070040985 -2.1272814251346874, 70.23801770250937 -1.872449005199798 M70.23801770250937 -1.872449005199798 C70.25659124219007 -1.5831511323813785, 70.27516478187079 -1.293853259562959, 70.31810621591342 -0.6250057626472757 M70.23801770250937 -1.872449005199798 C70.26453013145189 -1.459496523972477, 70.29104256039442 -1.0465440427451562, 70.31810621591342 -0.6250057626472757 M70.31810621591342 -0.6250057626472757 C70.31810621591342 -0.2938195696984024, 70.31810621591342 0.03736662325047091, 70.31810621591342 0.625005762647271 M70.31810621591342 -0.6250057626472757 C70.31810621591342 -0.17938753583235184, 70.31810621591342 0.266230690982572, 70.31810621591342 0.625005762647271 M70.31810621591342 0.625005762647271 C70.28803217842774 1.093433171812783, 70.25795814094207 1.561860580978295, 70.23801770250937 1.8724490051997846 M70.31810621591342 0.625005762647271 C70.29814446188689 0.935926194448184, 70.27818270786037 1.2468466262490971, 70.23801770250937 1.8724490051997846 M70.23801770250937 1.8724490051997846 C70.19567255288531 2.2008696236883876, 70.15332740326124 2.5292902421769905, 70.07816977658177 3.1121979531508885 M70.23801770250937 1.8724490051997846 C70.20511961277174 2.127600092742197, 70.17222152303411 2.3827511802846093, 70.07816977658177 3.1121979531508885 M70.07816977658177 3.1121979531508885 C69.99325332530482 3.548225983359745, 69.90833687402785 3.984254013568602, 69.83921928754556 4.339158212148129 M70.07816977658177 3.1121979531508885 C70.01783458392659 3.422006415587775, 69.95749939127141 3.7318148780246614, 69.83921928754556 4.339158212148129 M69.83921928754556 4.339158212148129 C69.7653235001679 4.620954876056018, 69.69142771279023 4.902751539963907, 69.52214813421489 5.548287939305125 M69.83921928754556 4.339158212148129 C69.75832478423906 4.647644013155303, 69.67743028093257 4.956129814162478, 69.52214813421489 5.548287939305125 M69.52214813421489 5.548287939305125 C69.44083102531403 5.793202115192679, 69.35951391641318 6.038116291080232, 69.12825922997033 6.734618561215495 M69.52214813421489 5.548287939305125 C69.42629250996801 5.836989807017043, 69.33043688572113 6.125691674728962, 69.12825922997033 6.734618561215495 M69.12825922997033 6.734618561215495 C68.9806028554898 7.099332660924175, 68.83294648100929 7.464046760632856, 68.65917114880834 7.893275190886679 M69.12825922997033 6.734618561215495 C69.01398979334174 7.016866278937368, 68.89972035671315 7.2991139966592415, 68.65917114880834 7.893275190886679 M68.65917114880834 7.893275190886679 C68.52946286707065 8.162617213227641, 68.39975458533294 8.431959235568602, 68.1168114742735 9.019496659696284 M68.65917114880834 7.893275190886679 C68.53050907885898 8.160444732063802, 68.40184700890963 8.427614273240923, 68.1168114742735 9.019496659696284 M68.1168114742735 9.019496659696284 C67.91769501086584 9.373048103204864, 67.7185785474582 9.726599546713446, 67.50340887860425 10.108655082055236 M68.1168114742735 9.019496659696284 C67.88341884232908 9.433908911280334, 67.65002621038465 9.848321162864385, 67.50340887860425 10.108655082055236 M67.50340887860425 10.108655082055236 C67.25942179150569 10.483484767545148, 67.01543470440711 10.858314453035058, 66.82148396464065 11.156274872382301 M67.50340887860425 10.108655082055236 C67.23936659552362 10.51429493414776, 66.975324312443 10.919934786240283, 66.82148396464065 11.156274872382301 M66.82148396464065 11.156274872382301 C66.65732256275504 11.376236195497636, 66.49316116086945 11.596197518612971, 66.07383890812659 12.158051136245302 M66.82148396464065 11.156274872382301 C66.5806874420667 11.47892027561689, 66.33989091949276 11.801565678851478, 66.07383890812659 12.158051136245302 M66.07383890812659 12.158051136245302 C65.82187124408269 12.454026691797514, 65.56990358003878 12.750002247349725, 65.26354594296866 13.10986736009567 M66.07383890812659 12.158051136245302 C65.87509924515129 12.39150205298327, 65.67635958217599 12.624952969721239, 65.26354594296866 13.10986736009567 M65.26354594296866 13.10986736009567 C64.9553127252174 13.428143463841668, 64.64707950746612 13.746419567587665, 64.39393473676799 14.007812326905684 M65.26354594296866 13.10986736009567 C65.04698951565157 13.333479650913894, 64.8304330883345 13.557091941732118, 64.39393473676799 14.007812326905684 M64.39393473676799 14.007812326905684 C64.16772921548123 14.2132461962682, 63.941523694194466 14.418680065630715, 63.46857870850189 14.848196188198111 M64.39393473676799 14.007812326905684 C64.0906213157807 14.283273550612998, 63.78730789479339 14.558734774320314, 63.46857870850189 14.848196188198111 M63.46857870850189 14.848196188198111 C63.17206510811551 15.08465789394796, 62.87555150772913 15.321119599697807, 62.49128034457871 15.627565626425152 M63.46857870850189 14.848196188198111 C63.19937666555196 15.062877653683458, 62.930174622602024 15.277559119168806, 62.49128034457871 15.627565626425152 M62.49128034457871 15.627565626425152 C62.172491521114104 15.849938909528317, 61.85370269764949 16.072312192631482, 61.46605557360571 16.34271804539089 M62.49128034457871 15.627565626425152 C62.17970555550988 15.84490671142434, 61.86813076644104 16.062247796423527, 61.46605557360571 16.34271804539089 M61.46605557360571 16.34271804539089 C61.24415328585444 16.477236516268295, 61.022250998103175 16.6117549871457, 60.39711726407678 16.990714730406093 M61.46605557360571 16.34271804539089 C61.16055482862488 16.52791439231992, 60.855054083644056 16.71311073924895, 60.39711726407678 16.990714730406093 M60.39711726407678 16.990714730406093 C60.01133543449865 17.19197686379195, 59.62555360492052 17.393238997177807, 59.28885791279239 17.56889292409717 M60.39711726407678 16.990714730406093 C59.98838174949098 17.203951786557912, 59.57964623490519 17.41718884270973, 59.28885791279239 17.56889292409717 M59.28885791279239 17.56889292409717 C58.874332924304184 17.75239084005401, 58.45980793581598 17.935888756010847, 58.145831595147804 18.07487676824742 M59.28885791279239 17.56889292409717 C58.9689259608658 17.71051730877091, 58.648994008939226 17.85214169344465, 58.145831595147804 18.07487676824742 M58.145831595147804 18.07487676824742 C57.90312080684575 18.164196581936512, 57.660410018543686 18.2535163956256, 56.97273525146062 18.506587066708033 M58.145831595147804 18.07487676824742 C57.77067735386906 18.212936996925787, 57.39552311259032 18.350997225604157, 56.97273525146062 18.506587066708033 M56.97273525146062 18.506587066708033 C56.62831902118409 18.608807995976424, 56.28390279090756 18.711028925244815, 55.77438938623541 18.86224982926107 M56.97273525146062 18.506587066708033 C56.51469410354931 18.64253127510106, 56.05665295563801 18.77847548349409, 55.77438938623541 18.86224982926107 M55.77438938623541 18.86224982926107 C55.29352564186508 18.97200384098441, 54.81266189749475 19.081757852707753, 54.555718259676766 19.140403561325773 M55.77438938623541 18.86224982926107 C55.46570320880847 18.932705434893208, 55.15701703138153 19.00316104052535, 54.555718259676766 19.140403561325773 M54.555718259676766 19.140403561325773 C54.25279794909149 19.189377367959107, 53.9498776385062 19.23835117459244, 53.32172965284788 19.3399052695533 M54.555718259676766 19.140403561325773 C54.078878500532596 19.21749531563664, 53.602038741388434 19.29458706994751, 53.32172965284788 19.3399052695533 M53.32172965284788 19.3399052695533 C52.98850339702431 19.37205120568939, 52.655277141200735 19.404197141825485, 52.0774942896239 19.45993515863156 M53.32172965284788 19.3399052695533 C52.99621093970231 19.371307668316923, 52.67069222655673 19.402710067080545, 52.0774942896239 19.45993515863156 M52.0774942896239 19.45993515863156 C51.69695925967631 19.472138176375477, 51.316424229728725 19.48434119411939, 50.82812500000001 19.5 M52.0774942896239 19.45993515863156 C51.757081454733566 19.470210174600744, 51.43666861984323 19.480485190569926, 50.82812500000001 19.5 M50.82812500000001 19.5 C50.82812500000001 19.5, 50.828125 19.5, 50.828125 19.5 M50.82812500000001 19.5 C50.82812500000001 19.5, 50.828125 19.5, 50.828125 19.5 M50.828125 19.5 C29.01229078101899 19.5, 7.19645656203798 19.5, -50.82812499999999 19.5 M50.828125 19.5 C22.05687069231499 19.5, -6.714383615370018 19.5, -50.82812499999999 19.5 M-50.82812499999999 19.5 C-51.086798742667256 19.491704836550557, -51.34547248533452 19.483409673101114, -52.07749428962389 19.45993515863156 M-50.82812499999999 19.5 C-51.25151584758344 19.48642267959829, -51.67490669516689 19.47284535919658, -52.07749428962389 19.45993515863156 M-52.07749428962389 19.45993515863156 C-52.44898193162853 19.424098192586627, -52.82046957363316 19.388261226541697, -53.32172965284787 19.3399052695533 M-52.07749428962389 19.45993515863156 C-52.45544598410645 19.423474613218243, -52.833397678589 19.387014067804927, -53.32172965284787 19.3399052695533 M-53.32172965284787 19.3399052695533 C-53.76082128598302 19.26891633951448, -54.19991291911817 19.19792740947566, -54.55571825967676 19.140403561325773 M-53.32172965284787 19.3399052695533 C-53.76952502352359 19.267509186727413, -54.21732039419931 19.195113103901527, -54.55571825967676 19.140403561325773 M-54.55571825967676 19.140403561325773 C-55.02087565452383 19.034234421387605, -55.4860330493709 18.92806528144944, -55.774389386235384 18.862249829261074 M-54.55571825967676 19.140403561325773 C-54.99523446250541 19.040086856141397, -55.43475066533406 18.93977015095702, -55.774389386235384 18.862249829261074 M-55.774389386235384 18.862249829261074 C-56.23525052165847 18.72546866337697, -56.69611165708156 18.588687497492863, -56.97273525146059 18.506587066708043 M-55.774389386235384 18.862249829261074 C-56.20139986774485 18.735515359772823, -56.62841034925431 18.608780890284574, -56.97273525146059 18.506587066708043 M-56.97273525146059 18.506587066708043 C-57.27514725900396 18.395296652466133, -57.57755926654732 18.284006238224222, -58.1458315951478 18.074876768247425 M-56.97273525146059 18.506587066708043 C-57.32076591348629 18.378508565922413, -57.668796575512 18.25043006513678, -58.1458315951478 18.074876768247425 M-58.1458315951478 18.074876768247425 C-58.575370011354146 17.884732853197274, -59.004908427560494 17.69458893814712, -59.28885791279238 17.568892924097174 M-58.1458315951478 18.074876768247425 C-58.58542442924973 17.88028206064861, -59.02501726335166 17.685687353049797, -59.28885791279238 17.568892924097174 M-59.28885791279238 17.568892924097174 C-59.632699612996355 17.389510929341885, -59.97654131320032 17.210128934586592, -60.39711726407678 16.990714730406097 M-59.28885791279238 17.568892924097174 C-59.58618422773414 17.413777976038656, -59.883510542675886 17.258663027980138, -60.39711726407678 16.990714730406097 M-60.39711726407678 16.990714730406097 C-60.78703085720573 16.754346818864718, -61.176944450334666 16.51797890732334, -61.466055573605686 16.3427180453909 M-60.39711726407678 16.990714730406097 C-60.69148795149944 16.812265489776305, -60.98585863892209 16.633816249146516, -61.466055573605686 16.3427180453909 M-61.466055573605686 16.3427180453909 C-61.86043968634551 16.067612760956678, -62.25482379908534 15.792507476522456, -62.49128034457871 15.627565626425156 M-61.466055573605686 16.3427180453909 C-61.6967641904408 16.18178570150178, -61.92747280727592 16.02085335761266, -62.49128034457871 15.627565626425156 M-62.49128034457871 15.627565626425156 C-62.69000462818449 15.46908829852483, -62.88872891179026 15.310610970624504, -63.468578708501866 14.848196188198125 M-62.49128034457871 15.627565626425156 C-62.87341133606642 15.32282632964646, -63.255542327554124 15.018087032867765, -63.468578708501866 14.848196188198125 M-63.468578708501866 14.848196188198125 C-63.70262636073195 14.635640303004301, -63.93667401296203 14.423084417810477, -64.39393473676797 14.007812326905697 M-63.468578708501866 14.848196188198125 C-63.745375465545145 14.596816697092287, -64.02217222258842 14.345437205986448, -64.39393473676797 14.007812326905697 M-64.39393473676797 14.007812326905697 C-64.61092997826302 13.783746924421413, -64.82792521975806 13.55968152193713, -65.26354594296865 13.109867360095677 M-64.39393473676797 14.007812326905697 C-64.72486608897158 13.666098535786164, -65.05579744117519 13.32438474466663, -65.26354594296865 13.109867360095677 M-65.26354594296865 13.109867360095677 C-65.43936302541955 12.90334261077345, -65.61518010787044 12.696817861451223, -66.07383890812658 12.158051136245307 M-65.26354594296865 13.109867360095677 C-65.45972942403576 12.879419080077936, -65.65591290510288 12.648970800060194, -66.07383890812658 12.158051136245307 M-66.07383890812658 12.158051136245307 C-66.29491206894045 11.86183324093399, -66.51598522975432 11.565615345622675, -66.82148396464063 11.156274872382316 M-66.07383890812658 12.158051136245307 C-66.36619311028724 11.766323139365754, -66.6585473124479 11.374595142486204, -66.82148396464063 11.156274872382316 M-66.82148396464063 11.156274872382316 C-67.06923723998872 10.775659310377991, -67.31699051533681 10.395043748373666, -67.50340887860425 10.108655082055249 M-66.82148396464063 11.156274872382316 C-67.01846583350569 10.853657824767527, -67.21544770237074 10.551040777152739, -67.50340887860425 10.108655082055249 M-67.50340887860425 10.108655082055249 C-67.73166405554309 9.703364902057329, -67.95991923248195 9.29807472205941, -68.1168114742735 9.019496659696289 M-67.50340887860425 10.108655082055249 C-67.73622940034839 9.69525867006425, -67.96904992209252 9.28186225807325, -68.1168114742735 9.019496659696289 M-68.1168114742735 9.019496659696289 C-68.32621890993765 8.584657638938326, -68.53562634560181 8.149818618180365, -68.65917114880834 7.893275190886686 M-68.1168114742735 9.019496659696289 C-68.26919555409881 8.703067857442047, -68.42157963392413 8.386639055187807, -68.65917114880834 7.893275190886686 M-68.65917114880834 7.893275190886686 C-68.81376398370301 7.5114278998477175, -68.96835681859768 7.129580608808749, -69.12825922997033 6.73461856121551 M-68.65917114880834 7.893275190886686 C-68.83469781754798 7.4597209255225065, -69.01022448628761 7.026166660158326, -69.12825922997033 6.73461856121551 M-69.12825922997033 6.73461856121551 C-69.23764036396612 6.405180013137156, -69.34702149796193 6.075741465058802, -69.52214813421489 5.5482879393051325 M-69.12825922997033 6.73461856121551 C-69.23171681138903 6.423020809709443, -69.33517439280773 6.111423058203377, -69.52214813421489 5.5482879393051325 M-69.52214813421489 5.5482879393051325 C-69.6122035000148 5.204867799267618, -69.70225886581471 4.861447659230103, -69.83921928754556 4.339158212148136 M-69.52214813421489 5.5482879393051325 C-69.60452739554628 5.23414011245082, -69.68690665687767 4.919992285596507, -69.83921928754556 4.339158212148136 M-69.83921928754556 4.339158212148136 C-69.89795052818047 4.037585704339965, -69.95668176881539 3.7360131965317933, -70.07816977658177 3.112197953150904 M-69.83921928754556 4.339158212148136 C-69.92633891586277 3.8918173334791906, -70.01345854418 3.4444764548102453, -70.07816977658177 3.112197953150904 M-70.07816977658177 3.112197953150904 C-70.13226412453658 2.6926528725507555, -70.18635847249136 2.273107791950607, -70.23801770250937 1.872449005199809 M-70.07816977658177 3.112197953150904 C-70.12348100748004 2.7607729940185632, -70.1687922383783 2.4093480348862224, -70.23801770250937 1.872449005199809 M-70.23801770250937 1.872449005199809 C-70.25797473330545 1.5616021415255608, -70.27793176410152 1.2507552778513125, -70.31810621591342 0.6250057626472781 M-70.23801770250937 1.872449005199809 C-70.26572812729167 1.440836771763153, -70.29343855207398 1.0092245383264968, -70.31810621591342 0.6250057626472781 M-70.31810621591342 0.6250057626472781 C-70.31810621591342 0.19204703435789533, -70.31810621591342 -0.24091169393148748, -70.31810621591342 -0.6250057626472687 M-70.31810621591342 0.6250057626472781 C-70.31810621591342 0.21171857156838875, -70.31810621591342 -0.20156861951050065, -70.31810621591342 -0.6250057626472687 M-70.31810621591342 -0.6250057626472687 C-70.28860600883075 -1.0844953000982964, -70.25910580174809 -1.5439848375493241, -70.23801770250937 -1.8724490051997822 M-70.31810621591342 -0.6250057626472687 C-70.30094604836464 -0.8922892236575013, -70.28378588081586 -1.1595726846677339, -70.23801770250937 -1.8724490051997822 M-70.23801770250937 -1.8724490051997822 C-70.19055178531906 -2.2405852857223283, -70.14308586812874 -2.6087215662448746, -70.07816977658177 -3.112197953150895 M-70.23801770250937 -1.8724490051997822 C-70.18487444730904 -2.2846175982107915, -70.13173119210872 -2.6967861912218005, -70.07816977658177 -3.112197953150895 M-70.07816977658177 -3.112197953150895 C-70.02257773683328 -3.3976513278776084, -69.96698569708481 -3.683104702604322, -69.83921928754556 -4.339158212148126 M-70.07816977658177 -3.112197953150895 C-69.99825045662236 -3.5225667701882792, -69.91833113666293 -3.9329355872256637, -69.83921928754556 -4.339158212148126 M-69.83921928754556 -4.339158212148126 C-69.72035580714466 -4.792436178675035, -69.60149232674377 -5.245714145201944, -69.52214813421489 -5.548287939305123 M-69.83921928754556 -4.339158212148126 C-69.73162294222423 -4.749469709409368, -69.62402659690292 -5.159781206670609, -69.52214813421489 -5.548287939305123 M-69.52214813421489 -5.548287939305123 C-69.41252873634447 -5.878444100211633, -69.30290933847404 -6.208600261118143, -69.12825922997033 -6.734618561215485 M-69.52214813421489 -5.548287939305123 C-69.4366867917969 -5.80568388625233, -69.35122544937892 -6.063079833199538, -69.12825922997033 -6.734618561215485 M-69.12825922997033 -6.734618561215485 C-68.98230758635896 -7.0951219427186345, -68.83635594274759 -7.455625324221784, -68.65917114880834 -7.893275190886676 M-69.12825922997033 -6.734618561215485 C-68.99065353581602 -7.074507286201724, -68.85304784166172 -7.414396011187963, -68.65917114880834 -7.893275190886676 M-68.65917114880834 -7.893275190886676 C-68.45673918614627 -8.313629492704614, -68.25430722348419 -8.733983794522551, -68.1168114742735 -9.019496659696282 M-68.65917114880834 -7.893275190886676 C-68.47898531831551 -8.26743492326419, -68.29879948782269 -8.641594655641704, -68.1168114742735 -9.019496659696282 M-68.1168114742735 -9.019496659696282 C-67.9335707827503 -9.344859062627812, -67.75033009122708 -9.670221465559342, -67.50340887860425 -10.108655082055243 M-68.1168114742735 -9.019496659696282 C-67.94804288013414 -9.319162388264033, -67.77927428599476 -9.618828116831786, -67.50340887860425 -10.108655082055243 M-67.50340887860425 -10.108655082055243 C-67.26611656405862 -10.473199799105693, -67.028824249513 -10.837744516156143, -66.82148396464063 -11.156274872382308 M-67.50340887860425 -10.108655082055243 C-67.25946594158279 -10.483416941170756, -67.01552300456133 -10.858178800286268, -66.82148396464063 -11.156274872382308 M-66.82148396464063 -11.156274872382308 C-66.64464655772855 -11.393220887425308, -66.46780915081648 -11.630166902468309, -66.07383890812659 -12.158051136245302 M-66.82148396464063 -11.156274872382308 C-66.56223993685948 -11.503638251992268, -66.30299590907833 -11.851001631602227, -66.07383890812659 -12.158051136245302 M-66.07383890812659 -12.158051136245302 C-65.84856620339508 -12.422669273602965, -65.62329349866356 -12.687287410960629, -65.26354594296866 -13.10986736009567 M-66.07383890812659 -12.158051136245302 C-65.75627740477992 -12.531076947837725, -65.43871590143327 -12.904102759430149, -65.26354594296866 -13.10986736009567 M-65.26354594296866 -13.10986736009567 C-64.92263714140738 -13.461883686840821, -64.58172833984611 -13.813900013585974, -64.39393473676799 -14.007812326905677 M-65.26354594296866 -13.10986736009567 C-64.91917756868789 -13.465455979709903, -64.57480919440711 -13.821044599324134, -64.39393473676799 -14.007812326905677 M-64.39393473676799 -14.007812326905677 C-64.02879678272389 -14.339420955747675, -63.663658828679786 -14.671029584589673, -63.46857870850189 -14.848196188198107 M-64.39393473676799 -14.007812326905677 C-64.12925652432536 -14.24818607644433, -63.86457831188272 -14.488559825982984, -63.46857870850189 -14.848196188198107 M-63.46857870850189 -14.848196188198107 C-63.16188311002921 -15.092777766467435, -62.85518751155652 -15.337359344736763, -62.49128034457872 -15.627565626425149 M-63.46857870850189 -14.848196188198107 C-63.22543711310897 -15.042095140254377, -62.98229551771605 -15.235994092310644, -62.49128034457872 -15.627565626425149 M-62.49128034457872 -15.627565626425149 C-62.27211138374733 -15.780448405829729, -62.05294242291594 -15.933331185234307, -61.466055573605715 -16.342718045390885 M-62.49128034457872 -15.627565626425149 C-62.09449892683084 -15.904343167055334, -61.697717509082956 -16.18112070768552, -61.466055573605715 -16.342718045390885 M-61.466055573605715 -16.342718045390885 C-61.130703211708294 -16.546010617922327, -60.79535084981088 -16.74930319045377, -60.39711726407679 -16.99071473040609 M-61.466055573605715 -16.342718045390885 C-61.132366648426036 -16.545002232808596, -60.79867772324635 -16.74728642022631, -60.39711726407679 -16.99071473040609 M-60.39711726407679 -16.99071473040609 C-60.13405697053912 -17.127953117046534, -59.87099667700145 -17.265191503686978, -59.28885791279239 -17.56889292409717 M-60.39711726407679 -16.99071473040609 C-59.99517887651195 -17.20040572974484, -59.59324048894712 -17.41009672908359, -59.28885791279239 -17.56889292409717 M-59.28885791279239 -17.56889292409717 C-58.95944502730808 -17.714714236815013, -58.630032141823776 -17.860535549532855, -58.145831595147804 -18.07487676824742 M-59.28885791279239 -17.56889292409717 C-59.02930827647863 -17.683787848826867, -58.769758640164866 -17.79868277355656, -58.145831595147804 -18.07487676824742 M-58.145831595147804 -18.07487676824742 C-57.85353165587036 -18.182445847892538, -57.56123171659292 -18.29001492753766, -56.97273525146062 -18.506587066708033 M-58.145831595147804 -18.07487676824742 C-57.81236910945178 -18.197594045476986, -57.47890662375575 -18.32031132270655, -56.97273525146062 -18.506587066708033 M-56.97273525146062 -18.506587066708033 C-56.5108082118178 -18.64368458736951, -56.04888117217499 -18.78078210803099, -55.77438938623541 -18.862249829261067 M-56.97273525146062 -18.506587066708033 C-56.50512116853472 -18.64537247196403, -56.037507085608816 -18.78415787722003, -55.77438938623541 -18.862249829261067 M-55.77438938623541 -18.862249829261067 C-55.48936303197989 -18.927305234649108, -55.20433667772436 -18.992360640037145, -54.555718259676766 -19.140403561325773 M-55.77438938623541 -18.862249829261067 C-55.50500152224644 -18.923735851296453, -55.23561365825746 -18.985221873331838, -54.555718259676766 -19.140403561325773 M-54.555718259676766 -19.140403561325773 C-54.16245969924401 -19.203982555610857, -53.76920113881125 -19.26756154989594, -53.32172965284788 -19.3399052695533 M-54.555718259676766 -19.140403561325773 C-54.24037106303113 -19.191386450525407, -53.92502386638549 -19.242369339725037, -53.32172965284788 -19.3399052695533 M-53.32172965284788 -19.3399052695533 C-52.83232017287997 -19.387118013484788, -52.342910692912064 -19.434330757416276, -52.0774942896239 -19.45993515863156 M-53.32172965284788 -19.3399052695533 C-53.01090874874469 -19.369889788355305, -52.70008784464151 -19.39987430715731, -52.0774942896239 -19.45993515863156 M-52.0774942896239 -19.45993515863156 C-51.7030204433778 -19.47194380601155, -51.32854659713171 -19.483952453391534, -50.82812500000001 -19.5 M-52.0774942896239 -19.45993515863156 C-51.748707914871616 -19.47047869772601, -51.41992154011933 -19.48102223682046, -50.82812500000001 -19.5 M-50.82812500000001 -19.5 C-50.82812500000001 -19.5, -50.82812500000001 -19.5, -50.828125 -19.5 M-50.82812500000001 -19.5 C-50.82812500000001 -19.5, -50.828125 -19.5, -50.828125 -19.5" stroke="#9370DB" stroke-width="1.3" fill="none" stroke-dasharray="0 0" style=""/></g><g class="label" style="" transform="translate(-57.953125, -12)"><rect/><foreignObject width="115.90625" height="24"><div xmlns="http://www.w3.org/1999/xhtml" style="display: table-cell; white-space: nowrap; line-height: 1.5; max-width: 200px; text-align: center;"><span class="nodeLabel"><p>Install complete</p></span></div></foreignObject></g></g></g></g></g><defs><filter id="my-svg-drop-shadow" height="130%" width="130%"><feDropShadow dx="4" dy="4" stdDeviation="0" flood-opacity="0.06" flood-color="#000000"/></filter></defs><defs><filter id="my-svg-drop-shadow-small" height="150%" width="150%"><feDropShadow dx="2" dy="2" stdDeviation="0" flood-opacity="0.06" flood-color="#000000"/></filter></defs></svg>