<svg id="my-svg" width="100%" xmlns="http://www.w3.org/2000/svg" xmlns:xlink="http://www.w3.org/1999/xlink" class="flowchart" style="max-width: 586px; background-color: white;" viewBox="0 0 586 1535.578125" role="graphics-document document" aria-roledescription="flowchart-v2"><style>#my-svg{font-family:"trebuchet ms",verdana,arial,sans-serif;font-size:16px;fill:#333;}@keyframes edge-animation-frame{from{stroke-dashoffset:0;}}@keyframes dash{to{stroke-dashoffset:0;}}#my-svg .edge-animation-slow{stroke-dasharray:9,5!important;stroke-dashoffset:900;animation:dash 50s linear infinite;stroke-linecap:round;}#my-svg .edge-animation-fast{stroke-dasharray:9,5!important;stroke-dashoffset:900;animation:dash 20s linear infinite;stroke-linecap:round;}#my-svg .error-icon{fill:#552222;}#my-svg .error-text{fill:#552222;stroke:#552222;}#my-svg .edge-thickness-normal{stroke-width:1px;}#my-svg .edge-thickness-thick{stroke-width:3.5px;}#my-svg .edge-pattern-solid{stroke-dasharray:0;}#my-svg .edge-thickness-invisible{stroke-width:0;fill:none;}#my-svg .edge-pattern-dashed{stroke-dasharray:3;}#my-svg .edge-pattern-dotted{stroke-dasharray:2;}#my-svg .marker{fill:#333333;stroke:#333333;}#my-svg .marker.cross{stroke:#333333;}#my-svg svg{font-family:"trebuchet ms",verdana,arial,sans-serif;font-size:16px;}#my-svg p{margin:0;}#my-svg .label{font-family:"trebuchet ms",verdana,arial,sans-serif;color:#333;}#my-svg .cluster-label text{fill:#333;}#my-svg .cluster-label span{color:#333;}#my-svg .cluster-label span p{background-color:transparent;}#my-svg .label text,#my-svg span{fill:#333;color:#333;}#my-svg .node rect,#my-svg .node circle,#my-svg .node ellipse,#my-svg .node polygon,#my-svg .node path{fill:#ECECFF;stroke:#9370DB;stroke-width:1px;}#my-svg .rough-node .label text,#my-svg .node .label text,#my-svg .image-shape .label,#my-svg .icon-shape .label{text-anchor:middle;}#my-svg .node .katex path{fill:#000;stroke:#000;stroke-width:1px;}#my-svg .rough-node .label,#my-svg .node .label,#my-svg .image-shape .label,#my-svg .icon-shape .label{text-align:center;}#my-svg .node.clickable{cursor:pointer;}#my-svg .root .anchor path{fill:#333333!important;stroke-width:0;stroke:#333333;}#my-svg .arrowheadPath{fill:#333333;}#my-svg .edgePath .path{stroke:#333333;stroke-width:1px;}#my-svg .flowchart-link{stroke:#333333;fill:none;}#my-svg .edgeLabel{background-color:rgba(232,232,232, 0.8);text-align:center;}#my-svg .edgeLabel p{background-color:rgba(232,232,232, 0.8);}#my-svg .edgeLabel rect{opacity:0.5;background-color:rgba(232,232,232, 0.8);fill:rgba(232,232,232, 0.8);}#my-svg .labelBkg{background-color:rgba(232, 232, 232, 0.5);}#my-svg .cluster rect{fill:#ffffde;stroke:#aaaa33;stroke-width:1px;}#my-svg .cluster text{fill:#333;}#my-svg .cluster span{color:#333;}#my-svg div.mermaidTooltip{position:absolute;text-align:center;max-width:200px;padding:2px;font-family:"trebuchet ms",verdana,arial,sans-serif;font-size:12px;background:hsl(80, 100%, 96.2745098039%);border:1px solid #aaaa33;border-radius:2px;pointer-events:none;z-index:100;}#my-svg .flowchartTitleText{text-anchor:middle;font-size:18px;fill:#333;}#my-svg rect.text{fill:none;stroke-width:0;}#my-svg .icon-shape,#my-svg .image-shape{background-color:rgba(232,232,232, 0.8);text-align:center;}#my-svg .icon-shape p,#my-svg .image-shape p{background-color:rgba(232,232,232, 0.8);padding:2px;}#my-svg .icon-shape .label rect,#my-svg .image-shape .label rect{opacity:0.5;background-color:rgba(232,232,232, 0.8);fill:rgba(232,232,232, 0.8);}#my-svg .label-icon{display:inline-block;height:1em;overflow:visible;vertical-align:-0.125em;}#my-svg .node .label-icon path{fill:currentColor;stroke:revert;stroke-width:revert;}#my-svg .node .neo-node{stroke:#9370DB;}#my-svg [data-look="neo"].node rect,#my-svg [data-look="neo"].cluster rect,#my-svg [data-look="neo"].node polygon{stroke:#9370DB;filter:drop-shadow(1px 2px 2px rgba(185, 185, 185, 1));}#my-svg [data-look="neo"].node path{stroke:#9370DB;stroke-width:1px;}#my-svg [data-look="neo"].node .outer-path{filter:drop-shadow(1px 2px 2px rgba(185, 185, 185, 1));}#my-svg [data-look="neo"].node .neo-line path{stroke:#9370DB;filter:none;}#my-svg [data-look="neo"].node circle{stroke:#9370DB;filter:drop-shadow(1px 2px 2px rgba(185, 185, 185, 1));}#my-svg [data-look="neo"].node circle .state-start{fill:#000000;}#my-svg [data-look="neo"].icon-shape .icon{fill:#9370DB;filter:drop-shadow(1px 2px 2px rgba(185, 185, 185, 1));}#my-svg [data-look="neo"].icon-shape .icon-neo path{stroke:#9370DB;filter:drop-shadow(1px 2px 2px rgba(185, 185, 185, 1));}#my-svg :root{--mermaid-font-family:"trebuchet ms",verdana,arial,sans-serif;}#my-svg .new&gt;*{fill:#e1f5ff!important;stroke:#0277bd!important;stroke-width:2px!important;}#my-svg .new span{fill:#e1f5ff!important;stroke:#0277bd!important;stroke-width:2px!important;}</style><g><marker id="my-svg_flowchart-v2-pointEnd" class="marker flowchart-v2" viewBox="0 0 10 10" refX="5" refY="5" markerUnits="userSpaceOnUse" markerWidth="8" markerHeight="8" orient="auto"><path d="M 0 0 L 10 5 L 0 10 z" class="arrowMarkerPath" style="stroke-width: 1; stroke-dasharray: 1, 0;"/></marker><marker id="my-svg_flowchart-v2-pointStart" class="marker flowchart-v2" viewBox="0 0 10 10" refX="4.5" refY="5" markerUnits="userSpaceOnUse" markerWidth="8" markerHeight="8" orient="auto"><path d="M 0 5 L 10 10 L 10 0 z" class="arrowMarkerPath" style="stroke-width: 1; stroke-dasharray: 1, 0;"/></marker><marker id="my-svg_flowchart-v2-pointEnd-margin" class="marker flowchart-v2" viewBox="0 0 11.5 14" refX="11.5" refY="7" markerUnits="userSpaceOnUse" markerWidth="10.5" markerHeight="14" orient="auto"><path d="M 0 0 L 11.5 7 L 0 14 z" class="arrowMarkerPath" style="stroke-width: 0; stroke-dasharray: 1, 0;"/></marker><marker id="my-svg_flowchart-v2-pointStart-margin" class="marker flowchart-v2" viewBox="0 0 11.5 14" refX="1" refY="7" markerUnits="userSpaceOnUse" markerWidth="11.5" markerHeight="14" orient="auto"><polygon points="0,7 11.5,14 11.5,0" class="arrowMarkerPath" style="stroke-width: 0; stroke-dasharray: 1, 0;"/></marker><marker id="my-svg_flowchart-v2-circleEnd" class="marker flowchart-v2" viewBox="0 0 10 10" refX="11" refY="5" markerUnits="userSpaceOnUse" markerWidth="11" markerHeight="11" orient="auto"><circle cx="5" cy="5" r="5" class="arrowMarkerPath" style="stroke-width: 1; stroke-dasharray: 1, 0;"/></marker><marker id="my-svg_flowchart-v2-circleStart" class="marker flowchart-v2" viewBox="0 0 10 10" refX="-1" refY="5" markerUnits="userSpaceOnUse" markerWidth="11" markerHeight="11" orient="auto"><circle cx="5" cy="5" r="5" class="arrowMarkerPath" style="stroke-width: 1; stroke-dasharray: 1, 0;"/></marker><marker id="my-svg_flowchart-v2-circleEnd-margin" class="marker flowchart-v2" viewBox="0 0 10 10" refY="5" refX="12.25" markerUnits="userSpaceOnUse" markerWidth="14" markerHeight="14" orient="auto"><circle cx="5" cy="5" r="5" class="arrowMarkerPath" style="stroke-width: 0; stroke-dasharray: 1, 0;"/></marker><marker id="my-svg_flowchart-v2-circleStart-margin" class="marker flowchart-v2" viewBox="0 0 10 10" refX="-2" refY="5" markerUnits="userSpaceOnUse" markerWidth="14" markerHeight="14" orient="auto"><circle cx="5" cy="5" r="5" class="arrowMarkerPath" style="stroke-width: 0; stroke-dasharray: 1, 0;"/></marker><marker id="my-svg_flowchart-v2-crossEnd" class="marker cross flowchart-v2" viewBox="0 0 11 11" refX="12" refY="5.2" markerUnits="userSpaceOnUse" markerWidth="11" markerHeight="11" orient="auto"><path d="M 1,1 l 9,9 M 10,1 l -9,9" class="arrowMarkerPath" style="stroke-width: 2; stroke-dasharray: 1, 0;"/></marker><marker id="my-svg_flowchart-v2-crossStart" class="marker cross flowchart-v2" viewBox="0 0 11 11" refX="-1" refY="5.2" markerUnits="userSpaceOnUse" markerWidth="11" markerHeight="11" orient="auto"><path d="M 1,1 l 9,9 M 10,1 l -9,9" class="arrowMarkerPath" style="stroke-width: 2; stroke-dasharray: 1, 0;"/></marker><marker id="my-svg_flowchart-v2-crossEnd-margin" class="marker cross flowchart-v2" viewBox="0 0 15 15" refX="17.7" refY="7.5" markerUnits="userSpaceOnUse" markerWidth="12" markerHeight="12" orient="auto"><path d="M 1,1 L 14,14 M 1,14 L 14,1" class="arrowMarkerPath" style="stroke-width: 2.5;"/></marker><marker id="my-svg_flowchart-v2-crossStart-margin" class="marker cross flowchart-v2" viewBox="0 0 15 15" refX="-3.5" refY="7.5" markerUnits="userSpaceOnUse" markerWidth="12" markerHeight="12" orient="auto"><path d="M 1,1 L 14,14 M 1,14 L 14,1" class="arrowMarkerPath" style="stroke-width: 2.5; stroke-dasharray: 1, 0;"/></marker><g class="root"><g class="clusters"/><g class="edgePaths"><path d="M240.842,138.42L223.702,151.28C206.562,164.14,172.281,189.859,155.14,206.219C138,222.578,138,229.578,138,233.078L138,236.578" id="my-svg-L_START_BOOT_0" class="edge-thickness-normal edge-pattern-solid edge-thickness-normal edge-pattern-solid flowchart-link" style=";" data-edge="true" data-et="edge" data-id="L_START_BOOT_0" data-points="W3sieCI6MjQwLjg0MjMzMjYxMzM5MDk0LCJ5IjoxMzguNDIwNDU3NjEzMzkwOTR9LHsieCI6MTM4LCJ5IjoyMTUuNTc4MTI1fSx7IngiOjEzOCwieSI6MjQwLjU3ODEyNX1d" data-look="classic" marker-end="url(#my-svg_flowchart-v2-pointEnd)"/><path d="M138,318.578L138,322.745C138,326.911,138,335.245,138,342.911C138,350.578,138,357.578,138,361.078L138,364.578" id="my-svg-L_BOOT_MAT_0" class="edge-thickness-normal edge-pattern-solid edge-thickness-normal edge-pattern-solid flowchart-link" style=";" data-edge="true" data-et="edge" data-id="L_BOOT_MAT_0" data-points="W3sieCI6MTM4LCJ5IjozMTguNTc4MTI1fSx7IngiOjEzOCwieSI6MzQzLjU3ODEyNX0seyJ4IjoxMzgsInkiOjM2OC41NzgxMjV9XQ==" data-look="classic" marker-end="url(#my-svg_flowchart-v2-pointEnd)"/><path d="M138,470.578L138,474.745C138,478.911,138,487.245,147.475,495.324C156.95,503.403,175.9,511.227,185.375,515.139L194.85,519.052" id="my-svg-L_MAT_SOURCE_0" class="edge-thickness-normal edge-pattern-solid edge-thickness-normal edge-pattern-solid flowchart-link" style=";" data-edge="true" data-et="edge" data-id="L_MAT_SOURCE_0" data-points="W3sieCI6MTM4LCJ5Ijo0NzAuNTc4MTI1fSx7IngiOjEzOCwieSI6NDk1LjU3ODEyNX0seyJ4IjoxOTguNTQ2ODc1LCJ5Ijo1MjAuNTc4MTI1fV0=" data-look="classic" marker-end="url(#my-svg_flowchart-v2-pointEnd)"/><path d="M345.158,138.42L362.298,151.28C379.438,164.14,413.719,189.859,430.86,206.219C448,222.578,448,229.578,448,233.078L448,236.578" id="my-svg-L_START_CLONE_0" class="edge-thickness-normal edge-pattern-solid edge-thickness-normal edge-pattern-solid flowchart-link" style=";" data-edge="true" data-et="edge" data-id="L_START_CLONE_0" data-points="W3sieCI6MzQ1LjE1NzY2NzM4NjYwOTEsInkiOjEzOC40MjA0NTc2MTMzOTA5NH0seyJ4Ijo0NDgsInkiOjIxNS41NzgxMjV9LHsieCI6NDQ4LCJ5IjoyNDAuNTc4MTI1fV0=" data-look="classic" marker-end="url(#my-svg_flowchart-v2-pointEnd)"/><path d="M448,318.578L448,322.745C448,326.911,448,335.245,448,342.911C448,350.578,448,357.578,448,361.078L448,364.578" id="my-svg-L_CLONE_PYTHON_0" class="edge-thickness-normal edge-pattern-solid edge-thickness-normal edge-pattern-solid flowchart-link" style=";" data-edge="true" data-et="edge" data-id="L_CLONE_PYTHON_0" data-points="W3sieCI6NDQ4LCJ5IjozMTguNTc4MTI1fSx7IngiOjQ0OCwieSI6MzQzLjU3ODEyNX0seyJ4Ijo0NDgsInkiOjM2OC41NzgxMjV9XQ==" data-look="classic" marker-end="url(#my-svg_flowchart-v2-pointEnd)"/><path d="M448,470.578L448,474.745C448,478.911,448,487.245,438.525,495.324C429.05,503.403,410.1,511.227,400.625,515.139L391.15,519.052" id="my-svg-L_PYTHON_SOURCE_0" class="edge-thickness-normal edge-pattern-solid edge-thickness-normal edge-pattern-solid flowchart-link" style=";" data-edge="true" data-et="edge" data-id="L_PYTHON_SOURCE_0" data-points="W3sieCI6NDQ4LCJ5Ijo0NzAuNTc4MTI1fSx7IngiOjQ0OCwieSI6NDk1LjU3ODEyNX0seyJ4IjozODcuNDUzMTI1LCJ5Ijo1MjAuNTc4MTI1fV0=" data-look="classic" marker-end="url(#my-svg_flowchart-v2-pointEnd)"/><path d="M293,598.578L293,602.745C293,606.911,293,615.245,293,622.911C293,630.578,293,637.578,293,641.078L293,644.578" id="my-svg-L_SOURCE_COPY_0" class="edge-thickness-normal edge-pattern-solid edge-thickness-normal edge-pattern-solid flowchart-link" style=";" data-edge="true" data-et="edge" data-id="L_SOURCE_COPY_0" data-points="W3sieCI6MjkzLCJ5Ijo1OTguNTc4MTI1fSx7IngiOjI5MywieSI6NjIzLjU3ODEyNX0seyJ4IjoyOTMsInkiOjY0OC41NzgxMjV9XQ==" data-look="classic" marker-end="url(#my-svg_flowchart-v2-pointEnd)"/><path d="M293,726.578L293,730.745C293,734.911,293,743.245,293,750.911C293,758.578,293,765.578,293,769.078L293,772.578" id="my-svg-L_COPY_CHK_0" class="edge-thickness-normal edge-pattern-solid edge-thickness-normal edge-pattern-solid flowchart-link" style=";" data-edge="true" data-et="edge" data-id="L_COPY_CHK_0" data-points="W3sieCI6MjkzLCJ5Ijo3MjYuNTc4MTI1fSx7IngiOjI5MywieSI6NzUxLjU3ODEyNX0seyJ4IjoyOTMsInkiOjc3Ni41NzgxMjV9XQ==" data-look="classic" marker-end="url(#my-svg_flowchart-v2-pointEnd)"/><path d="M293,854.578L293,858.745C293,862.911,293,871.245,293,878.911C293,886.578,293,893.578,293,897.078L293,900.578" id="my-svg-L_CHK_VENV_0" class="edge-thickness-normal edge-pattern-solid edge-thickness-normal edge-pattern-solid flowchart-link" style=";" data-edge="true" data-et="edge" data-id="L_CHK_VENV_0" data-points="W3sieCI6MjkzLCJ5Ijo4NTQuNTc4MTI1fSx7IngiOjI5MywieSI6ODc5LjU3ODEyNX0seyJ4IjoyOTMsInkiOjkwNC41NzgxMjV9XQ==" data-look="classic" marker-end="url(#my-svg_flowchart-v2-pointEnd)"/><path d="M293,982.578L293,986.745C293,990.911,293,999.245,293,1006.911C293,1014.578,293,1021.578,293,1025.078L293,1028.578" id="my-svg-L_VENV_PIP_0" class="edge-thickness-normal edge-pattern-solid edge-thickness-normal edge-pattern-solid flowchart-link" style=";" data-edge="true" data-et="edge" data-id="L_VENV_PIP_0" data-points="W3sieCI6MjkzLCJ5Ijo5ODIuNTc4MTI1fSx7IngiOjI5MywieSI6MTAwNy41NzgxMjV9LHsieCI6MjkzLCJ5IjoxMDMyLjU3ODEyNX1d" data-look="classic" marker-end="url(#my-svg_flowchart-v2-pointEnd)"/><path d="M293,1158.578L293,1162.745C293,1166.911,293,1175.245,293,1182.911C293,1190.578,293,1197.578,293,1201.078L293,1204.578" id="my-svg-L_PIP_VERIFY_0" class="edge-thickness-normal edge-pattern-solid edge-thickness-normal edge-pattern-solid flowchart-link" style=";" data-edge="true" data-et="edge" data-id="L_PIP_VERIFY_0" data-points="W3sieCI6MjkzLCJ5IjoxMTU4LjU3ODEyNX0seyJ4IjoyOTMsInkiOjExODMuNTc4MTI1fSx7IngiOjI5MywieSI6MTIwOC41NzgxMjV9XQ==" data-look="classic" marker-end="url(#my-svg_flowchart-v2-pointEnd)"/><path d="M293,1286.578L293,1290.745C293,1294.911,293,1303.245,293,1310.911C293,1318.578,293,1325.578,293,1329.078L293,1332.578" id="my-svg-L_VERIFY_KEY_0" class="edge-thickness-normal edge-pattern-solid edge-thickness-normal edge-pattern-solid flowchart-link" style=";" data-edge="true" data-et="edge" data-id="L_VERIFY_KEY_0" data-points="W3sieCI6MjkzLCJ5IjoxMjg2LjU3ODEyNX0seyJ4IjoyOTMsInkiOjEzMTEuNTc4MTI1fSx7IngiOjI5MywieSI6MTMzNi41NzgxMjV9XQ==" data-look="classic" marker-end="url(#my-svg_flowchart-v2-pointEnd)"/><path d="M293,1438.578L293,1442.745C293,1446.911,293,1455.245,293.07,1462.995C293.141,1470.745,293.281,1477.912,293.351,1481.495L293.422,1485.079" id="my-svg-L_KEY_DONE_0" class="edge-thickness-normal edge-pattern-solid edge-thickness-normal edge-pattern-solid flowchart-link" style=";" data-edge="true" data-et="edge" data-id="L_KEY_DONE_0" data-points="W3sieCI6MjkzLCJ5IjoxNDM4LjU3ODEyNX0seyJ4IjoyOTMsInkiOjE0NjMuNTc4MTI1fSx7IngiOjI5My41LCJ5IjoxNDg5LjA3ODEyNX1d" data-look="classic" marker-end="url(#my-svg_flowchart-v2-pointEnd)"/></g><g class="edgeLabels"><g class="edgeLabel"><g class="label" data-id="L_START_BOOT_0" transform="translate(0, 0)"><foreignObject width="0" height="0"><div xmlns="http://www.w3.org/1999/xhtml" class="labelBkg" style="display: table-cell; white-space: nowrap; line-height: 1.5; max-width: 200px; text-align: center;"><span class="edgeLabel"></span></div></foreignObject></g></g><g class="edgeLabel"><g class="label" data-id="L_BOOT_MAT_0" transform="translate(0, 0)"><foreignObject width="0" height="0"><div xmlns="http://www.w3.org/1999/xhtml" class="labelBkg" style="display: table-cell; white-space: nowrap; line-height: 1.5; max-width: 200px; text-align: center;"><span class="edgeLabel"></span></div></foreignObject></g></g><g class="edgeLabel"><g class="label" data-id="L_MAT_SOURCE_0" transform="translate(0, 0)"><foreignObject width="0" height="0"><div xmlns="http://www.w3.org/1999/xhtml" class="labelBkg" style="display: table-cell; white-space: nowrap; line-height: 1.5; max-width: 200px; text-align: center;"><span class="edgeLabel"></span></div></foreignObject></g></g><g class="edgeLabel"><g class="label" data-id="L_START_CLONE_0" transform="translate(0, 0)"><foreignObject width="0" height="0"><div xmlns="http://www.w3.org/1999/xhtml" class="labelBkg" style="display: table-cell; white-space: nowrap; line-height: 1.5; max-width: 200px; text-align: center;"><span class="edgeLabel"></span></div></foreignObject></g></g><g class="edgeLabel"><g class="label" data-id="L_CLONE_PYTHON_0" transform="translate(0, 0)"><foreignObject width="0" height="0"><div xmlns="http://www.w3.org/1999/xhtml" class="labelBkg" style="display: table-cell; white-space: nowrap; line-height: 1.5; max-width: 200px; text-align: center;"><span class="edgeLabel"></span></div></foreignObject></g></g><g class="edgeLabel"><g class="label" data-id="L_PYTHON_SOURCE_0" transform="translate(0, 0)"><foreignObject width="0" height="0"><div xmlns="http://www.w3.org/1999/xhtml" class="labelBkg" style="display: table-cell; white-space: nowrap; line-height: 1.5; max-width: 200px; text-align: center;"><span class="edgeLabel"></span></div></foreignObject></g></g><g class="edgeLabel"><g class="label" data-id="L_SOURCE_COPY_0" transform="translate(0, 0)"><foreignObject width="0" height="0"><div xmlns="http://www.w3.org/1999/xhtml" class="labelBkg" style="display: table-cell; white-space: nowrap; line-height: 1.5; max-width: 200px; text-align: center;"><span class="edgeLabel"></span></div></foreignObject></g></g><g class="edgeLabel"><g class="label" data-id="L_COPY_CHK_0" transform="translate(0, 0)"><foreignObject width="0" height="0"><div xmlns="http://www.w3.org/1999/xhtml" class="labelBkg" style="display: table-cell; white-space: nowrap; line-height: 1.5; max-width: 200px; text-align: center;"><span class="edgeLabel"></span></div></foreignObject></g></g><g class="edgeLabel"><g class="label" data-id="L_CHK_VENV_0" transform="translate(0, 0)"><foreignObject width="0" height="0"><div xmlns="http://www.w3.org/1999/xhtml" class="labelBkg" style="display: table-cell; white-space: nowrap; line-height: 1.5; max-width: 200px; text-align: center;"><span class="edgeLabel"></span></div></foreignObject></g></g><g class="edgeLabel"><g class="label" data-id="L_VENV_PIP_0" transform="translate(0, 0)"><foreignObject width="0" height="0"><div xmlns="http://www.w3.org/1999/xhtml" class="labelBkg" style="display: table-cell; white-space: nowrap; line-height: 1.5; max-width: 200px; text-align: center;"><span class="edgeLabel"></span></div></foreignObject></g></g><g class="edgeLabel"><g class="label" data-id="L_PIP_VERIFY_0" transform="translate(0, 0)"><foreignObject width="0" height="0"><div xmlns="http://www.w3.org/1999/xhtml" class="labelBkg" style="display: table-cell; white-space: nowrap; line-height: 1.5; max-width: 200px; text-align: center;"><span class="edgeLabel"></span></div></foreignObject></g></g><g class="edgeLabel"><g class="label" data-id="L_VERIFY_KEY_0" transform="translate(0, 0)"><foreignObject width="0" height="0"><div xmlns="http://www.w3.org/1999/xhtml" class="labelBkg" style="display: table-cell; white-space: nowrap; line-height: 1.5; max-width: 200px; text-align: center;"><span class="edgeLabel"></span></div></foreignObject></g></g><g class="edgeLabel"><g class="label" data-id="L_KEY_DONE_0" transform="translate(0, 0)"><foreignObject width="0" height="0"><div xmlns="http://www.w3.org/1999/xhtml" class="labelBkg" style="display: table-cell; white-space: nowrap; line-height: 1.5; max-width: 200px; text-align: center;"><span class="edgeLabel"></span></div></foreignObject></g></g></g><g class="nodes"><g class="node default" id="my-svg-flowchart-START-0" data-look="classic" transform="translate(293, 99.2890625)"><polygon points="91.2890625,0 182.578125,-91.2890625 91.2890625,-182.578125 0,-91.2890625" class="label-container" transform="translate(-90.7890625, 91.2890625)"/><g class="label" style="" transform="translate(-64.2890625, -12)"><rect/><foreignObject width="128.578125" height="24"><div xmlns="http://www.w3.org/1999/xhtml" style="display: table-cell; white-space: nowrap; line-height: 1.5; max-width: 200px; text-align: center;"><span class="nodeLabel"><p>Install entry point</p></span></div></foreignObject></g></g><g class="node default" id="my-svg-flowchart-BOOT-1" data-look="classic" transform="translate(138, 279.578125)"><rect class="basic label-container" style="" x="-96.0859375" y="-39" width="192.171875" height="78"/><g class="label" style="" transform="translate(-66.0859375, -24)"><rect/><foreignObject width="132.171875" height="48"><div xmlns="http://www.w3.org/1999/xhtml" style="display: table-cell; white-space: nowrap; line-height: 1.5; max-width: 200px; text-align: center;"><span class="nodeLabel"><p>uvx / pipx<br />gemini-skill-install</p></span></div></foreignObject></g></g><g class="node default new" id="my-svg-flowchart-MAT-2" data-look="classic" transform="translate(138, 419.578125)"><rect class="basic label-container" style="fill:#e1f5ff !important;stroke:#0277bd !important;stroke-width:2px !important" x="-130" y="-51" width="260" height="102"/><g class="label" style="" transform="translate(-100, -36)"><rect/><foreignObject width="200" height="72"><div xmlns="http://www.w3.org/1999/xhtml" style="display: table; white-space: break-spaces; line-height: 1.5; max-width: 200px; text-align: center; width: 200px;"><span class="nodeLabel"><p>Materialize packaged payload<br />to a temp directory</p></span></div></foreignObject></g></g><g class="node default" id="my-svg-flowchart-CLONE-3" data-look="classic" transform="translate(448, 279.578125)"><rect class="basic label-container" style="" x="-119.71875" y="-39" width="239.4375" height="78"/><g class="label" style="" transform="translate(-89.71875, -24)"><rect/><foreignObject width="179.4375" height="48"><div xmlns="http://www.w3.org/1999/xhtml" style="display: table-cell; white-space: nowrap; line-height: 1.5; max-width: 200px; text-align: center;"><span class="nodeLabel"><p>python3 setup/install.py<br />(clone or release tarball)</p></span></div></foreignObject></g></g><g class="node default new" id="my-svg-flowchart-PYTHON-4" data-look="classic" transform="translate(448, 419.578125)"><rect class="basic label-container" style="fill:#e1f5ff !important;stroke:#0277bd !important;stroke-width:2px !important" x="-130" y="-51" width="260" height="102"/><g class="label" style="" transform="translate(-100, -36)"><rect/><foreignObject width="200" height="72"><div xmlns="http://www.w3.org/1999/xhtml" style="display: table; white-space: break-spaces; line-height: 1.5; max-width: 200px; text-align: center; width: 200px;"><span class="nodeLabel"><p>Validate stable CPython 3.9+<br />and re-exec if needed</p></span></div></foreignObject></g></g><g class="node default" id="my-svg-flowchart-SOURCE-5" data-look="classic" transform="translate(293, 559.578125)"><rect class="basic label-container" style="" x="-130" y="-39" width="260" height="78"/><g class="label" style="" transform="translate(-100, -24)"><rect/><foreignObject width="200" height="48"><div xmlns="http://www.w3.org/1999/xhtml" style="display: table; white-space: break-spaces; line-height: 1.5; max-width: 200px; text-align: center; width: 200px;"><span class="nodeLabel"><p>Resolve shared install payload</p></span></div></foreignObject></g></g><g class="node default" id="my-svg-flowchart-COPY-6" data-look="classic" transform="translate(293, 687.578125)"><rect class="basic label-container" style="" x="-119.09375" y="-39" width="238.1875" height="78"/><g class="label" style="" transform="translate(-89.09375, -24)"><rect/><foreignObject width="178.1875" height="48"><div xmlns="http://www.w3.org/1999/xhtml" style="display: table-cell; white-space: nowrap; line-height: 1.5; max-width: 200px; text-align: center;"><span class="nodeLabel"><p>Copy runtime payload to<br />~/.claude/skills/gemini/</p></span></div></foreignObject></g></g><g class="node default new" id="my-svg-flowchart-CHK-7" data-look="classic" transform="translate(293, 815.578125)"><rect class="basic label-container" style="fill:#e1f5ff !important;stroke:#0277bd !important;stroke-width:2px !important" x="-110.640625" y="-39" width="221.28125" height="78"/><g class="label" style="" transform="translate(-80.640625, -24)"><rect/><foreignObject width="161.28125" height="48"><div xmlns="http://www.w3.org/1999/xhtml" style="display: table-cell; white-space: nowrap; line-height: 1.5; max-width: 200px; text-align: center;"><span class="nodeLabel"><p>Write .checksums.json<br />install manifest</p></span></div></foreignObject></g></g><g class="node default new" id="my-svg-flowchart-VENV-8" data-look="classic" transform="translate(293, 943.578125)"><rect class="basic label-container" style="fill:#e1f5ff !important;stroke:#0277bd !important;stroke-width:2px !important" x="-138.6015625" y="-39" width="277.203125" height="78"/><g class="label" style="" transform="translate(-108.6015625, -24)"><rect/><foreignObject width="217.203125" height="48"><div xmlns="http://www.w3.org/1999/xhtml" style="display: table; white-space: break-spaces; line-height: 1.5; max-width: 200px; text-align: center; width: 200px;"><span class="nodeLabel"><p>Create or reuse<br />~/.claude/skills/gemini/.venv</p></span></div></foreignObject></g></g><g class="node default new" id="my-svg-flowchart-PIP-9" data-look="classic" transform="translate(293, 1095.578125)"><rect class="basic label-container" style="fill:#e1f5ff !important;stroke:#0277bd !important;stroke-width:2px !important" x="-130" y="-63" width="260" height="126"/><g class="label" style="" transform="translate(-100, -48)"><rect/><foreignObject width="200" height="96"><div xmlns="http://www.w3.org/1999/xhtml" style="display: table; white-space: break-spaces; line-height: 1.5; max-width: 200px; text-align: center; width: 200px;"><span class="nodeLabel"><p>pip install -r setup/requirements.txt<br />(google-genai==1.33.0 pinned)</p></span></div></foreignObject></g></g><g class="node default new" id="my-svg-flowchart-VERIFY-10" data-look="classic" transform="translate(293, 1247.578125)"><rect class="basic label-container" style="fill:#e1f5ff !important;stroke:#0277bd !important;stroke-width:2px !important" x="-101.8203125" y="-39" width="203.640625" height="78"/><g class="label" style="" transform="translate(-71.8203125, -24)"><rect/><foreignObject width="143.640625" height="48"><div xmlns="http://www.w3.org/1999/xhtml" style="display: table-cell; white-space: nowrap; line-height: 1.5; max-width: 200px; text-align: center;"><span class="nodeLabel"><p>Import google.genai<br />confirm SDK usable</p></span></div></foreignObject></g></g><g class="node default new" id="my-svg-flowchart-KEY-11" data-look="classic" transform="translate(293, 1387.578125)"><rect class="basic label-container" style="fill:#e1f5ff !important;stroke:#0277bd !important;stroke-width:2px !important" x="-130" y="-51" width="260" height="102"/><g class="label" style="" transform="translate(-100, -36)"><rect/><foreignObject width="200" height="72"><div xmlns="http://www.w3.org/1999/xhtml" style="display: table; white-space: break-spaces; line-height: 1.5; max-width: 200px; text-align: center; width: 200px;"><span class="nodeLabel"><p>Prompt / merge env block into<br />~/.claude/settings.json</p></span></div></foreignObject></g></g><g class="node default" id="my-svg-flowchart-DONE-12" data-look="classic" transform="translate(293, 1508.078125)"><g class="basic label-container outer-path"><path d="M-50.828125 -19.5 C-28.043230907143574 -19.5, -5.258336814287148 -19.5, 50.828125 -19.5 C50.828125 -19.5, 50.828125 -19.5, 50.828125 -19.5 C51.2158500281803 -19.487566413007244, 51.6035750563606 -19.475132826014487, 52.0774942896239 -19.45993515863156 C52.41303087418086 -19.42756634786113, 52.748567458737824 -19.395197537090706, 53.321729652847864 -19.3399052695533 C53.81077054106316 -19.260840931315382, 54.29981142927845 -19.181776593077466, 54.55571825967676 -19.140403561325776 C54.89926426506019 -19.061991427444205, 55.24281027044363 -18.98357929356263, 55.77438938623539 -18.862249829261074 C56.19920320871556 -18.73616731664222, 56.624017031195734 -18.610084804023362, 56.972735251460605 -18.50658706670804 C57.2522244655081 -18.403732452368587, 57.5317136795556 -18.300877838029134, 58.1458315951478 -18.074876768247425 C58.45367654990909 -17.938602938670726, 58.76152150467038 -17.802329109094032, 59.28885791279238 -17.568892924097174 C59.58164818129123 -17.416144428562443, 59.87443844979008 -17.263395933027713, 60.39711726407678 -16.990714730406097 C60.747041683714095 -16.778588490837812, 61.096966103351406 -16.56646225126953, 61.4660555736057 -16.342718045390892 C61.8129636909638 -16.10072996013225, 62.15987180832189 -15.858741874873603, 62.49128034457871 -15.627565626425154 C62.8796109561749 -15.317882297588765, 63.26794156777108 -15.008198968752378, 63.468578708501866 -14.848196188198123 C63.71950375525869 -14.6203126998465, 63.970428802015526 -14.392429211494873, 64.39393473676799 -14.007812326905688 C64.72833596114175 -13.662515607888666, 65.0627371855155 -13.317218888871645, 65.26354594296865 -13.10986736009568 C65.46909038217318 -12.868423165996122, 65.67463482137771 -12.62697897189656, 66.07383890812658 -12.158051136245305 C66.2945081612792 -11.862374440403325, 66.51517741443182 -11.566697744561347, 66.82148396464063 -11.156274872382312 C66.9628350658338 -10.9391216228643, 67.10418616702698 -10.72196837334629, 67.50340887860425 -10.108655082055241 C67.74784466020253 -9.674634600020605, 67.99228044180082 -9.240614117985967, 68.1168114742735 -9.019496659696287 C68.23080021783197 -8.782796594728733, 68.34478896139044 -8.54609652976118, 68.65917114880834 -7.893275190886684 C68.81058142757723 -7.5192888750089395, 68.96199170634611 -7.145302559131194, 69.12825922997033 -6.734618561215508 C69.25417850228982 -6.35536977550071, 69.38009777460931 -5.9761209897859136, 69.52214813421489 -5.548287939305138 C69.62887662926109 -5.141285931271633, 69.73560512430728 -4.734283923238128, 69.83921928754556 -4.339158212148133 C69.91639088770026 -3.9428983555772334, 69.99356248785496 -3.5466384990063338, 70.07816977658177 -3.1121979531509023 C70.13841622674333 -2.644938382705141, 70.19866267690487 -2.17767881225938, 70.23801770250937 -1.872449005199798 C70.25607257026735 -1.5912298662423496, 70.27412743802532 -1.3100107272849015, 70.31810621591342 -0.6250057626472757 C70.31810621591342 -0.17780350712248472, 70.31810621591342 0.26939874840230627, 70.31810621591342 0.625005762647271 C70.2866754319209 1.1145655938029184, 70.25524464792838 1.6041254249585657, 70.23801770250937 1.8724490051997846 C70.19503747208493 2.2057951849652344, 70.15205724166049 2.5391413647306837, 70.07816977658177 3.1121979531508885 C70.00591195707145 3.4832265846408577, 69.93365413756112 3.8542552161308263, 69.83921928754556 4.339158212148129 C69.72518312256541 4.774027532803977, 69.61114695758526 5.208896853459825, 69.52214813421489 5.548287939305125 C69.39898101798344 5.91924766937925, 69.275813901752 6.290207399453376, 69.12825922997033 6.734618561215495 C68.9930282702815 7.06864164615965, 68.85779731059266 7.402664731103806, 68.65917114880834 7.893275190886679 C68.48878238657414 8.247091101401468, 68.31839362433995 8.600907011916256, 68.1168114742735 9.019496659696284 C67.91652484040341 9.375125859353531, 67.71623820653332 9.73075505901078, 67.50340887860425 10.108655082055236 C67.27533505751327 10.459037717647234, 67.04726123642232 10.809420353239233, 66.82148396464065 11.156274872382301 C66.65295621974538 11.382086697348555, 66.48442847485012 11.607898522314809, 66.07383890812659 12.158051136245302 C65.86777141340565 12.40010974111714, 65.66170391868471 12.642168345988978, 65.26354594296866 13.10986736009567 C65.03501228508604 13.345847124821733, 64.80647862720342 13.581826889547795, 64.39393473676799 14.007812326905684 C64.18734662367538 14.195430185194452, 63.98075851058276 14.383048043483221, 63.46857870850189 14.848196188198111 C63.14003283925623 15.110202775948762, 62.81148697001056 15.372209363699415, 62.49128034457871 15.627565626425152 C62.08586276752196 15.910367377935893, 61.680445190465214 16.193169129446634, 61.46605557360571 16.34271804539089 C61.13267135899186 16.544817515472914, 60.79928714437801 16.74691698555494, 60.39711726407678 16.990714730406093 C59.98131226649704 17.207639931307632, 59.565507268917294 17.424565132209175, 59.28885791279239 17.56889292409717 C58.935797071517015 17.725182485352036, 58.582736230241636 17.881472046606902, 58.145831595147804 18.07487676824742 C57.82220795985715 18.19397325757847, 57.49858432456651 18.31306974690952, 56.97273525146062 18.506587066708033 C56.59619580263776 18.61834199862276, 56.2196563538149 18.730096930537485, 55.77438938623541 18.86224982926107 C55.429025063775846 18.941076982149642, 55.08366074131628 19.019904135038214, 54.555718259676766 19.140403561325773 C54.22433850761313 19.193978469751062, 53.89295875554951 19.247553378176352, 53.32172965284788 19.3399052695533 C52.906310546566694 19.379980251121673, 52.49089144028551 19.420055232690046, 52.0774942896239 19.45993515863156 C51.69252785123669 19.47228028301892, 51.30756141284948 19.484625407406284, 50.82812500000001 19.5 C50.82812500000001 19.5, 50.828125 19.5, 50.828125 19.5 C11.67678990755521 19.5, -27.47454518488958 19.5, -50.82812499999999 19.5 C-51.14892998024591 19.489712408692526, -51.469734960491834 19.479424817385055, -52.07749428962389 19.45993515863156 C-52.57118415393102 19.41230949117078, -53.06487401823814 19.364683823710003, -53.32172965284787 19.3399052695533 C-53.61230133061711 19.292927894108583, -53.902873008386344 19.24595051866387, -54.55571825967676 19.140403561325773 C-55.02406738658889 19.033505929371756, -55.49241651350101 18.92660829741774, -55.774389386235384 18.862249829261074 C-56.184814443466365 18.740437826640008, -56.59523950069735 18.61862582401894, -56.97273525146059 18.506587066708043 C-57.331807320512226 18.37444522607122, -57.69087938956386 18.2423033854344, -58.1458315951478 18.074876768247425 C-58.447382615434975 17.941389076759485, -58.74893363572215 17.807901385271542, -59.28885791279238 17.568892924097174 C-59.60694781926257 17.402945623637986, -59.92503772573276 17.236998323178796, -60.39711726407678 16.990714730406097 C-60.71170811061469 16.800007910493797, -61.02629895715259 16.609301090581496, -61.466055573605686 16.3427180453909 C-61.74222190661669 16.150076366530296, -62.0183882396277 15.957434687669695, -62.49128034457871 15.627565626425156 C-62.76155058751015 15.412032299880552, -63.03182083044158 15.196498973335949, -63.468578708501866 14.848196188198125 C-63.79897380336894 14.548140104815024, -64.12936889823601 14.248084021431923, -64.39393473676797 14.007812326905697 C-64.6498548609769 13.743553787227023, -64.90577498518583 13.479295247548349, -65.26354594296865 13.109867360095677 C-65.57021243083071 12.749639453635409, -65.87687891869277 12.389411547175142, -66.07383890812658 12.158051136245307 C-66.37220043137505 11.758273876386292, -66.67056195462352 11.358496616527276, -66.82148396464063 11.156274872382316 C-67.05214167053316 10.801922695864919, -67.28279937642567 10.447570519347522, -67.50340887860425 10.108655082055249 C-67.649673724882 9.848947036567349, -67.79593857115978 9.58923899107945, -68.1168114742735 9.019496659696289 C-68.27904152673314 8.682622484596793, -68.44127157919279 8.345748309497298, -68.65917114880834 7.893275190886686 C-68.7712906104962 7.616337952835346, -68.88341007218406 7.3394007147840075, -69.12825922997033 6.73461856121551 C-69.24260997100214 6.39021234854405, -69.35696071203395 6.045806135872589, -69.52214813421489 5.5482879393051325 C-69.64358312281368 5.085203697520961, -69.76501811141247 4.622119455736788, -69.83921928754556 4.339158212148136 C-69.89498687913007 4.052803415846286, -69.9507544707146 3.7664486195444367, -70.07816977658177 3.112197953150904 C-70.11699451722345 2.8110809315462824, -70.15581925786513 2.50996390994166, -70.23801770250937 1.872449005199809 C-70.26796585514816 1.4059823541369187, -70.29791400778696 0.9395157030740282, -70.31810621591342 0.6250057626472781 C-70.31810621591342 0.14468289626512593, -70.31810621591342 -0.3356399701170263, -70.31810621591342 -0.6250057626472687 C-70.2900156911635 -1.0625383598906706, -70.26192516641359 -1.5000709571340725, -70.23801770250937 -1.8724490051997822 C-70.18704842705255 -2.2677566406210414, -70.13607915159572 -2.6630642760423004, -70.07816977658177 -3.112197953150895 C-70.01291193476159 -3.4472831786477967, -69.9476540929414 -3.7823684041446985, -69.83921928754556 -4.339158212148126 C-69.750832308442 -4.6762160706290885, -69.66244532933842 -5.013273929110051, -69.52214813421489 -5.548287939305123 C-69.37717189165845 -5.984933283057757, -69.232195649102 -6.42157862681039, -69.12825922997033 -6.734618561215485 C-68.96777732525604 -7.13101196856634, -68.80729542054175 -7.527405375917195, -68.65917114880834 -7.893275190886676 C-68.47219764657882 -8.281529668858335, -68.28522414434931 -8.669784146829992, -68.1168114742735 -9.019496659696282 C-67.88132878612022 -9.437620017720299, -67.64584609796694 -9.855743375744318, -67.50340887860425 -10.108655082055243 C-67.3313818432753 -10.372934804047512, -67.15935480794634 -10.63721452603978, -66.82148396464063 -11.156274872382308 C-66.61204694685742 -11.436901396106983, -66.4026099290742 -11.717527919831658, -66.07383890812659 -12.158051136245302 C-65.75281451465884 -12.53514465561798, -65.4317901211911 -12.912238174990659, -65.26354594296866 -13.10986736009567 C-65.04102994172382 -13.339633400284427, -64.81851394047897 -13.569399440473186, -64.39393473676799 -14.007812326905677 C-64.12174799222947 -14.255005126628935, -63.849561247690964 -14.502197926352194, -63.46857870850189 -14.848196188198107 C-63.167611842504535 -15.088209254766335, -62.866644976507175 -15.328222321334565, -62.49128034457872 -15.627565626425149 C-62.09667008860258 -15.902828658591444, -61.70205983262644 -16.17809169075774, -61.466055573605715 -16.342718045390885 C-61.05455972183556 -16.592169248951997, -60.643063870065404 -16.84162045251311, -60.39711726407679 -16.99071473040609 C-59.95459809755006 -17.22157669613603, -59.51207893102333 -17.452438661865973, -59.28885791279239 -17.56889292409717 C-58.95370451762316 -17.71725539016636, -58.61855112245393 -17.86561785623555, -58.145831595147804 -18.07487676824742 C-57.72486342091379 -18.229796947752682, -57.30389524667978 -18.384717127257943, -56.97273525146062 -18.506587066708033 C-56.50214990343251 -18.646254327849878, -56.03156455540441 -18.78592158899172, -55.77438938623541 -18.862249829261067 C-55.525978995093524 -18.91894788000991, -55.277568603951636 -18.97564593075875, -54.555718259676766 -19.140403561325773 C-54.179517814854464 -19.201224731766622, -53.80331737003216 -19.26204590220747, -53.32172965284788 -19.3399052695533 C-53.0217421960346 -19.368844698724374, -52.721754739221325 -19.39778412789545, -52.0774942896239 -19.45993515863156 C-51.81784804833733 -19.46826150821887, -51.558201807050764 -19.47658785780618, -50.82812500000001 -19.5 C-50.82812500000001 -19.5, -50.828125 -19.5, -50.828125 -19.5" stroke="none" stroke-width="0" fill="#ECECFF" style=""/><path d="M-50.828125 -19.5 C-19.816578682195615 -19.5, 11.19496763560877 -19.5, 50.828125 -19.5 M-50.828125 -19.5 C-28.265673578762854 -19.5, -5.703222157525708 -19.5, 50.828125 -19.5 M50.828125 -19.5 C50.828125 -19.5, 50.828125 -19.5, 50.828125 -19.5 M50.828125 -19.5 C50.828125 -19.5, 50.828125 -19.5, 50.828125 -19.5 M50.828125 -19.5 C51.09997462452987 -19.49128231166452, 51.37182424905974 -19.482564623329043, 52.0774942896239 -19.45993515863156 M50.828125 -19.5 C51.107662585770285 -19.49103577371125, 51.38720017154057 -19.4820715474225, 52.0774942896239 -19.45993515863156 M52.0774942896239 -19.45993515863156 C52.410432916223535 -19.427816969740775, 52.74337154282317 -19.395698780849987, 53.321729652847864 -19.3399052695533 M52.0774942896239 -19.45993515863156 C52.40421546461247 -19.428416759820113, 52.73093663960105 -19.396898361008667, 53.321729652847864 -19.3399052695533 M53.321729652847864 -19.3399052695533 C53.803422591576485 -19.26202889080419, 54.285115530305106 -19.184152512055075, 54.55571825967676 -19.140403561325776 M53.321729652847864 -19.3399052695533 C53.79029348288418 -19.264151503279802, 54.2588573129205 -19.1883977370063, 54.55571825967676 -19.140403561325776 M54.55571825967676 -19.140403561325776 C54.824245396142025 -19.079113994730907, 55.09277253260729 -19.017824428136034, 55.77438938623539 -18.862249829261074 M54.55571825967676 -19.140403561325776 C54.99174939226862 -19.040882300680735, 55.427780524860495 -18.941361040035694, 55.77438938623539 -18.862249829261074 M55.77438938623539 -18.862249829261074 C56.107901398101454 -18.7632652147795, 56.44141340996752 -18.66428060029793, 56.972735251460605 -18.50658706670804 M55.77438938623539 -18.862249829261074 C56.20906182299337 -18.73324133167349, 56.64373425975134 -18.604232834085902, 56.972735251460605 -18.50658706670804 M56.972735251460605 -18.50658706670804 C57.3327901721951 -18.374083527566544, 57.69284509292959 -18.24157998842505, 58.1458315951478 -18.074876768247425 M56.972735251460605 -18.50658706670804 C57.3815734387419 -18.356130834529747, 57.7904116260232 -18.205674602351454, 58.1458315951478 -18.074876768247425 M58.1458315951478 -18.074876768247425 C58.48121689015145 -17.926411647000602, 58.8166021851551 -17.777946525753777, 59.28885791279238 -17.568892924097174 M58.1458315951478 -18.074876768247425 C58.42273599273069 -17.952299405514584, 58.69964039031358 -17.829722042781746, 59.28885791279238 -17.568892924097174 M59.28885791279238 -17.568892924097174 C59.66825928112819 -17.370959473254555, 60.047660649464014 -17.173026022411936, 60.39711726407678 -16.990714730406097 M59.28885791279238 -17.568892924097174 C59.6444658766867 -17.38337247711128, 60.000073840581024 -17.197852030125382, 60.39711726407678 -16.990714730406097 M60.39711726407678 -16.990714730406097 C60.74454133811934 -16.780104215031017, 61.0919654121619 -16.569493699655933, 61.4660555736057 -16.342718045390892 M60.39711726407678 -16.990714730406097 C60.69320123905439 -16.8112268847921, 60.989285214032 -16.6317390391781, 61.4660555736057 -16.342718045390892 M61.4660555736057 -16.342718045390892 C61.75417569102471 -16.141737923998253, 62.04229580844372 -15.940757802605614, 62.49128034457871 -15.627565626425154 M61.4660555736057 -16.342718045390892 C61.69853782716918 -16.18054848929956, 61.931020080732665 -16.018378933208226, 62.49128034457871 -15.627565626425154 M62.49128034457871 -15.627565626425154 C62.86156361594268 -15.332274571164067, 63.231846887306645 -15.036983515902982, 63.468578708501866 -14.848196188198123 M62.49128034457871 -15.627565626425154 C62.8159526136301 -15.3686481317486, 63.14062488268149 -15.109730637072047, 63.468578708501866 -14.848196188198123 M63.468578708501866 -14.848196188198123 C63.74306235985123 -14.598917398482078, 64.0175460112006 -14.349638608766034, 64.39393473676799 -14.007812326905688 M63.468578708501866 -14.848196188198123 C63.69639518585815 -14.641299291156834, 63.92421166321443 -14.434402394115544, 64.39393473676799 -14.007812326905688 M64.39393473676799 -14.007812326905688 C64.73942092533107 -13.651069472270708, 65.08490711389415 -13.294326617635726, 65.26354594296865 -13.10986736009568 M64.39393473676799 -14.007812326905688 C64.70189178999769 -13.68982138570174, 65.00984884322739 -13.371830444497792, 65.26354594296865 -13.10986736009568 M65.26354594296865 -13.10986736009568 C65.52668090819921 -12.800774057132184, 65.78981587342976 -12.491680754168689, 66.07383890812658 -12.158051136245305 M65.26354594296865 -13.10986736009568 C65.54805004983943 -12.775672647422963, 65.83255415671023 -12.441477934750244, 66.07383890812658 -12.158051136245305 M66.07383890812658 -12.158051136245305 C66.37057578396747 -11.76045075590402, 66.66731265980837 -11.362850375562736, 66.82148396464063 -11.156274872382312 M66.07383890812658 -12.158051136245305 C66.24448140067952 -11.929405742075248, 66.41512389323245 -11.700760347905193, 66.82148396464063 -11.156274872382312 M66.82148396464063 -11.156274872382312 C67.03114250375748 -10.834183055098169, 67.24080104287434 -10.512091237814026, 67.50340887860425 -10.108655082055241 M66.82148396464063 -11.156274872382312 C67.01192061492827 -10.863713038139716, 67.2023572652159 -10.57115120389712, 67.50340887860425 -10.108655082055241 M67.50340887860425 -10.108655082055241 C67.7336640998943 -9.699813620785308, 67.96391932118436 -9.290972159515375, 68.1168114742735 -9.019496659696287 M67.50340887860425 -10.108655082055241 C67.72176020177703 -9.720950197292913, 67.94011152494983 -9.333245312530583, 68.1168114742735 -9.019496659696287 M68.1168114742735 -9.019496659696287 C68.3022337619855 -8.634463311860927, 68.4876560496975 -8.249429964025566, 68.65917114880834 -7.893275190886684 M68.1168114742735 -9.019496659696287 C68.23979742497755 -8.764113701581545, 68.3627833756816 -8.508730743466803, 68.65917114880834 -7.893275190886684 M68.65917114880834 -7.893275190886684 C68.78711311601776 -7.57725605828974, 68.9150550832272 -7.261236925692796, 69.12825922997033 -6.734618561215508 M68.65917114880834 -7.893275190886684 C68.76327173562461 -7.63614472880256, 68.86737232244089 -7.3790142667184355, 69.12825922997033 -6.734618561215508 M69.12825922997033 -6.734618561215508 C69.22609052842141 -6.43996627758145, 69.32392182687249 -6.145313993947393, 69.52214813421489 -5.548287939305138 M69.12825922997033 -6.734618561215508 C69.21690859082322 -6.467620810684099, 69.30555795167614 -6.200623060152688, 69.52214813421489 -5.548287939305138 M69.52214813421489 -5.548287939305138 C69.58910449868056 -5.292954302525627, 69.65606086314622 -5.037620665746116, 69.83921928754556 -4.339158212148133 M69.52214813421489 -5.548287939305138 C69.59675577779845 -5.26377665916372, 69.67136342138203 -4.979265379022302, 69.83921928754556 -4.339158212148133 M69.83921928754556 -4.339158212148133 C69.88833013153688 -4.0869844078332624, 69.9374409755282 -3.8348106035183913, 70.07816977658177 -3.1121979531509023 M69.83921928754556 -4.339158212148133 C69.91887994463521 -3.9301175742786376, 69.99854060172486 -3.521076936409142, 70.07816977658177 -3.1121979531509023 M70.07816977658177 -3.1121979531509023 C70.11969538766546 -2.790133513745275, 70.16122099874914 -2.468069074339648, 70.23801770250937 -1.872449005199798 M70.07816977658177 -3.1121979531509023 C70.1154117287273 -2.8233567265655406, 70.15265368087282 -2.5345154999801793, 70.23801770250937 -1.872449005199798 M70.23801770250937 -1.872449005199798 C70.26452280215963 -1.4596106836155818, 70.2910279018099 -1.0467723620313656, 70.31810621591342 -0.6250057626472757 M70.23801770250937 -1.872449005199798 C70.25651964777524 -1.5842662731823984, 70.27502159304112 -1.2960835411649991, 70.31810621591342 -0.6250057626472757 M70.31810621591342 -0.6250057626472757 C70.31810621591342 -0.3131726776815972, 70.31810621591342 -0.0013395927159186583, 70.31810621591342 0.625005762647271 M70.31810621591342 -0.6250057626472757 C70.31810621591342 -0.24725986830548624, 70.31810621591342 0.13048602603630322, 70.31810621591342 0.625005762647271 M70.31810621591342 0.625005762647271 C70.2895227413265 1.0702164515041221, 70.26093926673956 1.5154271403609734, 70.23801770250937 1.8724490051997846 M70.31810621591342 0.625005762647271 C70.28986034917749 1.0649579367126711, 70.26161448244156 1.5049101107780714, 70.23801770250937 1.8724490051997846 M70.23801770250937 1.8724490051997846 C70.20352930615553 2.1399341968159136, 70.16904090980171 2.4074193884320425, 70.07816977658177 3.1121979531508885 M70.23801770250937 1.8724490051997846 C70.19568442076714 2.200777578740482, 70.1533511390249 2.5291061522811797, 70.07816977658177 3.1121979531508885 M70.07816977658177 3.1121979531508885 C69.99486746732865 3.5399377052164294, 69.91156515807552 3.9676774572819706, 69.83921928754556 4.339158212148129 M70.07816977658177 3.1121979531508885 C70.01725546647178 3.4249800613217034, 69.95634115636179 3.7377621694925183, 69.83921928754556 4.339158212148129 M69.83921928754556 4.339158212148129 C69.72362946633004 4.7799522973883555, 69.6080396451145 5.220746382628581, 69.52214813421489 5.548287939305125 M69.83921928754556 4.339158212148129 C69.76231628868214 4.632422676784871, 69.68541328981874 4.925687141421613, 69.52214813421489 5.548287939305125 M69.52214813421489 5.548287939305125 C69.41895311596119 5.859094892391957, 69.31575809770749 6.169901845478788, 69.12825922997033 6.734618561215495 M69.52214813421489 5.548287939305125 C69.43828318647157 5.800875799843191, 69.35441823872824 6.053463660381256, 69.12825922997033 6.734618561215495 M69.12825922997033 6.734618561215495 C68.95586581388056 7.1604336319571775, 68.78347239779079 7.586248702698861, 68.65917114880834 7.893275190886679 M69.12825922997033 6.734618561215495 C69.02856711168765 6.9808600207896925, 68.92887499340497 7.227101480363889, 68.65917114880834 7.893275190886679 M68.65917114880834 7.893275190886679 C68.51568734542683 8.19122237866997, 68.37220354204531 8.489169566453262, 68.1168114742735 9.019496659696284 M68.65917114880834 7.893275190886679 C68.47071179951317 8.284615062082207, 68.282252450218 8.675954933277735, 68.1168114742735 9.019496659696284 M68.1168114742735 9.019496659696284 C67.90422029676095 9.396973822560874, 67.69162911924839 9.774450985425464, 67.50340887860425 10.108655082055236 M68.1168114742735 9.019496659696284 C67.92936660060339 9.352324013749243, 67.74192172693327 9.685151367802202, 67.50340887860425 10.108655082055236 M67.50340887860425 10.108655082055236 C67.35385376842079 10.338411892467215, 67.20429865823732 10.568168702879195, 66.82148396464065 11.156274872382301 M67.50340887860425 10.108655082055236 C67.36024940214091 10.32858648160499, 67.21708992567756 10.548517881154744, 66.82148396464065 11.156274872382301 M66.82148396464065 11.156274872382301 C66.55036574612552 11.51954858581475, 66.2792475276104 11.882822299247199, 66.07383890812659 12.158051136245302 M66.82148396464065 11.156274872382301 C66.5698239406551 11.4934763778231, 66.31816391666956 11.830677883263897, 66.07383890812659 12.158051136245302 M66.07383890812659 12.158051136245302 C65.8201397824662 12.456060565135198, 65.56644065680581 12.754069994025093, 65.26354594296866 13.10986736009567 M66.07383890812659 12.158051136245302 C65.77320662048031 12.511190927776392, 65.47257433283403 12.86433071930748, 65.26354594296866 13.10986736009567 M65.26354594296866 13.10986736009567 C64.95610551911403 13.427324839053803, 64.64866509525939 13.744782318011936, 64.39393473676799 14.007812326905684 M65.26354594296866 13.10986736009567 C65.02224952929868 13.35902571801392, 64.78095311562869 13.608184075932169, 64.39393473676799 14.007812326905684 M64.39393473676799 14.007812326905684 C64.20762802137237 14.177011156422424, 64.02132130597674 14.346209985939163, 63.46857870850189 14.848196188198111 M64.39393473676799 14.007812326905684 C64.09900476647341 14.27565992250782, 63.80407479617884 14.543507518109955, 63.46857870850189 14.848196188198111 M63.46857870850189 14.848196188198111 C63.11601972275325 15.129352597344019, 62.763460737004614 15.410509006489928, 62.49128034457871 15.627565626425152 M63.46857870850189 14.848196188198111 C63.2453834626933 15.026188457255525, 63.022188216884715 15.20418072631294, 62.49128034457871 15.627565626425152 M62.49128034457871 15.627565626425152 C62.283035396085154 15.772828287715733, 62.074790447591596 15.918090949006311, 61.46605557360571 16.34271804539089 M62.49128034457871 15.627565626425152 C62.240050645953986 15.802812588627395, 61.98882094732925 15.978059550829636, 61.46605557360571 16.34271804539089 M61.46605557360571 16.34271804539089 C61.08000440950442 16.57674452975755, 60.69395324540313 16.810771014124214, 60.39711726407678 16.990714730406093 M61.46605557360571 16.34271804539089 C61.22069462262715 16.49145729577509, 60.975333671648585 16.640196546159288, 60.39711726407678 16.990714730406093 M60.39711726407678 16.990714730406093 C60.01464830776993 17.190248539928323, 59.63217935146307 17.38978234945055, 59.28885791279239 17.56889292409717 M60.39711726407678 16.990714730406093 C60.03525399368952 17.17949856678264, 59.67339072330227 17.368282403159185, 59.28885791279239 17.56889292409717 M59.28885791279239 17.56889292409717 C59.015136538754454 17.690061256727695, 58.741415164716514 17.81122958935822, 58.145831595147804 18.07487676824742 M59.28885791279239 17.56889292409717 C59.00714438108216 17.693599147850282, 58.72543084937194 17.818305371603397, 58.145831595147804 18.07487676824742 M58.145831595147804 18.07487676824742 C57.76218371949153 18.216062732891018, 57.37853584383526 18.35724869753461, 56.97273525146062 18.506587066708033 M58.145831595147804 18.07487676824742 C57.855306190478196 18.18179280275324, 57.56478078580858 18.28870883725906, 56.97273525146062 18.506587066708033 M56.97273525146062 18.506587066708033 C56.724126940230335 18.580372708509525, 56.47551862900006 18.654158350311018, 55.77438938623541 18.86224982926107 M56.97273525146062 18.506587066708033 C56.66684948899379 18.597372355381054, 56.36096372652696 18.68815764405408, 55.77438938623541 18.86224982926107 M55.77438938623541 18.86224982926107 C55.52822430307033 18.91843540311621, 55.28205921990524 18.974620976971348, 54.555718259676766 19.140403561325773 M55.77438938623541 18.86224982926107 C55.35271877737507 18.958493394075564, 54.93104816851472 19.05473695889006, 54.555718259676766 19.140403561325773 M54.555718259676766 19.140403561325773 C54.13963593897073 19.20767252417094, 53.72355361826469 19.2749414870161, 53.32172965284788 19.3399052695533 M54.555718259676766 19.140403561325773 C54.249627327462974 19.189889969475466, 53.94353639524918 19.239376377625163, 53.32172965284788 19.3399052695533 M53.32172965284788 19.3399052695533 C52.86769449273439 19.383705495392277, 52.413659332620895 19.427505721231253, 52.0774942896239 19.45993515863156 M53.32172965284788 19.3399052695533 C52.948010384113054 19.37595751794497, 52.57429111537822 19.412009766336638, 52.0774942896239 19.45993515863156 M52.0774942896239 19.45993515863156 C51.661593904820585 19.473272274471213, 51.24569352001727 19.486609390310864, 50.82812500000001 19.5 M52.0774942896239 19.45993515863156 C51.62877768999944 19.47432462660764, 51.18006109037497 19.488714094583717, 50.82812500000001 19.5 M50.82812500000001 19.5 C50.82812500000001 19.5, 50.828125 19.5, 50.828125 19.5 M50.82812500000001 19.5 C50.82812500000001 19.5, 50.828125 19.5, 50.828125 19.5 M50.828125 19.5 C29.441465836287872 19.5, 8.054806672575744 19.5, -50.82812499999999 19.5 M50.828125 19.5 C21.903909764903798 19.5, -7.020305470192405 19.5, -50.82812499999999 19.5 M-50.82812499999999 19.5 C-51.15545391814067 19.489503198702316, -51.48278283628136 19.479006397404632, -52.07749428962389 19.45993515863156 M-50.82812499999999 19.5 C-51.26626147782036 19.48594981593722, -51.70439795564072 19.47189963187444, -52.07749428962389 19.45993515863156 M-52.07749428962389 19.45993515863156 C-52.56197123841093 19.41319825005085, -53.04644818719798 19.366461341470142, -53.32172965284787 19.3399052695533 M-52.07749428962389 19.45993515863156 C-52.34752385916973 19.433885730815543, -52.61755342871558 19.407836302999527, -53.32172965284787 19.3399052695533 M-53.32172965284787 19.3399052695533 C-53.723393303225095 19.27496740550844, -54.12505695360231 19.21002954146358, -54.55571825967676 19.140403561325773 M-53.32172965284787 19.3399052695533 C-53.78644375739158 19.264773897042375, -54.2511578619353 19.189642524531454, -54.55571825967676 19.140403561325773 M-54.55571825967676 19.140403561325773 C-54.8672994960624 19.069287177378335, -55.17888073244805 18.998170793430898, -55.774389386235384 18.862249829261074 M-54.55571825967676 19.140403561325773 C-54.818543669055906 19.08041537673106, -55.08136907843506 19.020427192136353, -55.774389386235384 18.862249829261074 M-55.774389386235384 18.862249829261074 C-56.179152344578135 18.74211830786907, -56.58391530292089 18.621986786477066, -56.97273525146059 18.506587066708043 M-55.774389386235384 18.862249829261074 C-56.20023545292478 18.73586095197928, -56.62608151961418 18.609472074697486, -56.97273525146059 18.506587066708043 M-56.97273525146059 18.506587066708043 C-57.36990271596692 18.360425768393917, -57.76707018047326 18.21426447007979, -58.1458315951478 18.074876768247425 M-56.97273525146059 18.506587066708043 C-57.234428182349404 18.410281649078026, -57.49612111323822 18.313976231448006, -58.1458315951478 18.074876768247425 M-58.1458315951478 18.074876768247425 C-58.51649725729483 17.910794075021133, -58.88716291944186 17.746711381794842, -59.28885791279238 17.568892924097174 M-58.1458315951478 18.074876768247425 C-58.434471441531336 17.94710447045026, -58.723111287914875 17.81933217265309, -59.28885791279238 17.568892924097174 M-59.28885791279238 17.568892924097174 C-59.66396392714219 17.373200356677746, -60.03906994149201 17.177507789258318, -60.39711726407678 16.990714730406097 M-59.28885791279238 17.568892924097174 C-59.54137207776365 17.437156445974704, -59.79388624273492 17.305419967852238, -60.39711726407678 16.990714730406097 M-60.39711726407678 16.990714730406097 C-60.67260561967719 16.82371207029185, -60.9480939752776 16.656709410177605, -61.466055573605686 16.3427180453909 M-60.39711726407678 16.990714730406097 C-60.65521749697952 16.83425285245513, -60.91331772988226 16.677790974504166, -61.466055573605686 16.3427180453909 M-61.466055573605686 16.3427180453909 C-61.72226808662712 16.16399528756808, -61.97848059964854 15.985272529745263, -62.49128034457871 15.627565626425156 M-61.466055573605686 16.3427180453909 C-61.6884065795854 16.187615609039366, -61.910757585565115 16.032513172687832, -62.49128034457871 15.627565626425156 M-62.49128034457871 15.627565626425156 C-62.81296828171605 15.371028057033648, -63.1346562188534 15.11449048764214, -63.468578708501866 14.848196188198125 M-62.49128034457871 15.627565626425156 C-62.69519526678435 15.46494890237013, -62.899110188989994 15.302332178315103, -63.468578708501866 14.848196188198125 M-63.468578708501866 14.848196188198125 C-63.72198868069291 14.618055956314672, -63.975398652883946 14.387915724431219, -64.39393473676797 14.007812326905697 M-63.468578708501866 14.848196188198125 C-63.7824030703614 14.563189206094908, -64.09622743222093 14.278182223991692, -64.39393473676797 14.007812326905697 M-64.39393473676797 14.007812326905697 C-64.63646815776424 13.757376657362872, -64.8790015787605 13.506940987820046, -65.26354594296865 13.109867360095677 M-64.39393473676797 14.007812326905697 C-64.72194579847074 13.669113975488584, -65.04995686017352 13.33041562407147, -65.26354594296865 13.109867360095677 M-65.26354594296865 13.109867360095677 C-65.56142722493038 12.759959056378307, -65.85930850689212 12.410050752660936, -66.07383890812658 12.158051136245307 M-65.26354594296865 13.109867360095677 C-65.51941442341803 12.809309683630845, -65.77528290386742 12.508752007166013, -66.07383890812658 12.158051136245307 M-66.07383890812658 12.158051136245307 C-66.27441651069014 11.889295421805624, -66.47499411325373 11.62053970736594, -66.82148396464063 11.156274872382316 M-66.07383890812658 12.158051136245307 C-66.24496990629872 11.928751189049287, -66.41610090447087 11.699451241853268, -66.82148396464063 11.156274872382316 M-66.82148396464063 11.156274872382316 C-66.98441995638056 10.905961434629804, -67.14735594812049 10.655647996877292, -67.50340887860425 10.108655082055249 M-66.82148396464063 11.156274872382316 C-67.01782328346503 10.854644954178806, -67.21416260228943 10.553015035975296, -67.50340887860425 10.108655082055249 M-67.50340887860425 10.108655082055249 C-67.69975990815017 9.76001394639872, -67.8961109376961 9.411372810742192, -68.1168114742735 9.019496659696289 M-67.50340887860425 10.108655082055249 C-67.63829215876684 9.869156159713379, -67.77317543892944 9.62965723737151, -68.1168114742735 9.019496659696289 M-68.1168114742735 9.019496659696289 C-68.29825831601815 8.642718410473071, -68.47970515776278 8.265940161249853, -68.65917114880834 7.893275190886686 M-68.1168114742735 9.019496659696289 C-68.2923748397211 8.654935574890082, -68.46793820516872 8.290374490083876, -68.65917114880834 7.893275190886686 M-68.65917114880834 7.893275190886686 C-68.76160216793228 7.640268593281505, -68.86403318705624 7.387261995676322, -69.12825922997033 6.73461856121551 M-68.65917114880834 7.893275190886686 C-68.80496934791945 7.533150820265838, -68.95076754703055 7.173026449644992, -69.12825922997033 6.73461856121551 M-69.12825922997033 6.73461856121551 C-69.22101249921685 6.4552604924715, -69.31376576846338 6.17590242372749, -69.52214813421489 5.5482879393051325 M-69.12825922997033 6.73461856121551 C-69.28192350294515 6.271806254092376, -69.43558777591997 5.808993946969243, -69.52214813421489 5.5482879393051325 M-69.52214813421489 5.5482879393051325 C-69.6156768127112 5.191622552613029, -69.7092054912075 4.834957165920925, -69.83921928754556 4.339158212148136 M-69.52214813421489 5.5482879393051325 C-69.61167405624404 5.206886797827915, -69.7011999782732 4.865485656350697, -69.83921928754556 4.339158212148136 M-69.83921928754556 4.339158212148136 C-69.91577209520949 3.9460757242354636, -69.99232490287342 3.552993236322792, -70.07816977658177 3.112197953150904 M-69.83921928754556 4.339158212148136 C-69.92658425482087 3.8905575697817976, -70.01394922209617 3.4419569274154593, -70.07816977658177 3.112197953150904 M-70.07816977658177 3.112197953150904 C-70.11635111885371 2.8160710022486057, -70.15453246112565 2.519944051346307, -70.23801770250937 1.872449005199809 M-70.07816977658177 3.112197953150904 C-70.12966943413294 2.7127767789417674, -70.1811690916841 2.3133556047326307, -70.23801770250937 1.872449005199809 M-70.23801770250937 1.872449005199809 C-70.26675445794389 1.4248508434156606, -70.29549121337841 0.9772526816315124, -70.31810621591342 0.6250057626472781 M-70.23801770250937 1.872449005199809 C-70.26745091246947 1.4140030020116945, -70.29688412242957 0.9555569988235801, -70.31810621591342 0.6250057626472781 M-70.31810621591342 0.6250057626472781 C-70.31810621591342 0.18023240741342678, -70.31810621591342 -0.2645409478204246, -70.31810621591342 -0.6250057626472687 M-70.31810621591342 0.6250057626472781 C-70.31810621591342 0.24635840688429528, -70.31810621591342 -0.13228894887868758, -70.31810621591342 -0.6250057626472687 M-70.31810621591342 -0.6250057626472687 C-70.29031531518379 -1.0578714739224155, -70.26252441445418 -1.4907371851975624, -70.23801770250937 -1.8724490051997822 M-70.31810621591342 -0.6250057626472687 C-70.30055895105893 -0.8983185766530866, -70.28301168620445 -1.1716313906589044, -70.23801770250937 -1.8724490051997822 M-70.23801770250937 -1.8724490051997822 C-70.20063056175321 -2.16241628597846, -70.16324342099706 -2.4523835667571374, -70.07816977658177 -3.112197953150895 M-70.23801770250937 -1.8724490051997822 C-70.17621553253588 -2.3517744312953135, -70.11441336256239 -2.831099857390845, -70.07816977658177 -3.112197953150895 M-70.07816977658177 -3.112197953150895 C-70.0123803900464 -3.4500125484182553, -69.94659100351103 -3.787827143685615, -69.83921928754556 -4.339158212148126 M-70.07816977658177 -3.112197953150895 C-69.99638523665257 -3.532144280518693, -69.91460069672338 -3.9520906078864906, -69.83921928754556 -4.339158212148126 M-69.83921928754556 -4.339158212148126 C-69.72972075180452 -4.756723585894308, -69.62022221606348 -5.1742889596404895, -69.52214813421489 -5.548287939305123 M-69.83921928754556 -4.339158212148126 C-69.75869997601761 -4.646213244294563, -69.67818066448966 -4.953268276441, -69.52214813421489 -5.548287939305123 M-69.52214813421489 -5.548287939305123 C-69.42183420443672 -5.850417512942777, -69.32152027465854 -6.152547086580432, -69.12825922997033 -6.734618561215485 M-69.52214813421489 -5.548287939305123 C-69.43078746495615 -5.823451718766573, -69.33942679569742 -6.098615498228023, -69.12825922997033 -6.734618561215485 M-69.12825922997033 -6.734618561215485 C-69.00357014686458 -7.042603007186102, -68.87888106375884 -7.350587453156719, -68.65917114880834 -7.893275190886676 M-69.12825922997033 -6.734618561215485 C-68.98641073525827 -7.084987085608335, -68.84456224054622 -7.435355610001185, -68.65917114880834 -7.893275190886676 M-68.65917114880834 -7.893275190886676 C-68.50720696521309 -8.208832069634884, -68.35524278161782 -8.524388948383091, -68.1168114742735 -9.019496659696282 M-68.65917114880834 -7.893275190886676 C-68.47726630681572 -8.271004487424452, -68.29536146482312 -8.648733783962228, -68.1168114742735 -9.019496659696282 M-68.1168114742735 -9.019496659696282 C-67.99124086202924 -9.242459997139264, -67.86567024978498 -9.465423334582246, -67.50340887860425 -10.108655082055243 M-68.1168114742735 -9.019496659696282 C-67.97085870349053 -9.278650583542108, -67.82490593270755 -9.537804507387934, -67.50340887860425 -10.108655082055243 M-67.50340887860425 -10.108655082055243 C-67.32017747866767 -10.390147716877987, -67.1369460787311 -10.671640351700729, -66.82148396464063 -11.156274872382308 M-67.50340887860425 -10.108655082055243 C-67.2487512137888 -10.499877640369611, -66.99409354897332 -10.89110019868398, -66.82148396464063 -11.156274872382308 M-66.82148396464063 -11.156274872382308 C-66.55262324278064 -11.51652374595907, -66.28376252092063 -11.876772619535831, -66.07383890812659 -12.158051136245302 M-66.82148396464063 -11.156274872382308 C-66.63130484844045 -11.411097562416657, -66.44112573224025 -11.665920252451007, -66.07383890812659 -12.158051136245302 M-66.07383890812659 -12.158051136245302 C-65.76097678616817 -12.525556787056715, -65.44811466420975 -12.89306243786813, -65.26354594296866 -13.10986736009567 M-66.07383890812659 -12.158051136245302 C-65.85469211397894 -12.415473430456965, -65.6355453198313 -12.67289572466863, -65.26354594296866 -13.10986736009567 M-65.26354594296866 -13.10986736009567 C-65.0557352707913 -13.324448940692278, -64.84792459861394 -13.539030521288886, -64.39393473676799 -14.007812326905677 M-65.26354594296866 -13.10986736009567 C-64.98829026983826 -13.394091441513853, -64.71303459670786 -13.678315522932035, -64.39393473676799 -14.007812326905677 M-64.39393473676799 -14.007812326905677 C-64.03094585430134 -14.337469225802352, -63.66795697183469 -14.667126124699028, -63.46857870850189 -14.848196188198107 M-64.39393473676799 -14.007812326905677 C-64.0892157767872 -14.284550023938355, -63.78449681680642 -14.561287720971032, -63.46857870850189 -14.848196188198107 M-63.46857870850189 -14.848196188198107 C-63.102681221574066 -15.13998969708199, -62.73678373464625 -15.431783205965875, -62.49128034457872 -15.627565626425149 M-63.46857870850189 -14.848196188198107 C-63.23779062213934 -15.032243545543329, -63.007002535776806 -15.21629090288855, -62.49128034457872 -15.627565626425149 M-62.49128034457872 -15.627565626425149 C-62.10028380121694 -15.900307889106767, -61.70928725785515 -16.17305015178838, -61.466055573605715 -16.342718045390885 M-62.49128034457872 -15.627565626425149 C-62.24594811051575 -15.798698772646237, -62.00061587645277 -15.969831918867325, -61.466055573605715 -16.342718045390885 M-61.466055573605715 -16.342718045390885 C-61.16777964207477 -16.523534667948883, -60.869503710543825 -16.704351290506878, -60.39711726407679 -16.99071473040609 M-61.466055573605715 -16.342718045390885 C-61.05535847344738 -16.591685041030928, -60.64466137328904 -16.840652036670967, -60.39711726407679 -16.99071473040609 M-60.39711726407679 -16.99071473040609 C-60.06931985954501 -17.16172642638606, -59.74152245501323 -17.332738122366035, -59.28885791279239 -17.56889292409717 M-60.39711726407679 -16.99071473040609 C-59.96136805111394 -17.218044815698118, -59.5256188381511 -17.445374900990142, -59.28885791279239 -17.56889292409717 M-59.28885791279239 -17.56889292409717 C-58.92502710571281 -17.729950029733875, -58.56119629863322 -17.89100713537058, -58.145831595147804 -18.07487676824742 M-59.28885791279239 -17.56889292409717 C-58.868364221532346 -17.755033007715824, -58.44787053027231 -17.941173091334473, -58.145831595147804 -18.07487676824742 M-58.145831595147804 -18.07487676824742 C-57.801756798259106 -18.20149947409502, -57.45768200137041 -18.328122179942614, -56.97273525146062 -18.506587066708033 M-58.145831595147804 -18.07487676824742 C-57.816316028603936 -18.196141542744073, -57.48680046206007 -18.31740631724072, -56.97273525146062 -18.506587066708033 M-56.97273525146062 -18.506587066708033 C-56.602495898103264 -18.61647216335847, -56.232256544745916 -18.72635726000891, -55.77438938623541 -18.862249829261067 M-56.97273525146062 -18.506587066708033 C-56.58487636744136 -18.621701547572123, -56.197017483422094 -18.736816028436213, -55.77438938623541 -18.862249829261067 M-55.77438938623541 -18.862249829261067 C-55.365329976531314 -18.955614970163914, -54.956270566827214 -19.048980111066765, -54.555718259676766 -19.140403561325773 M-55.77438938623541 -18.862249829261067 C-55.48322986327718 -18.928705090382834, -55.19207034031894 -18.9951603515046, -54.555718259676766 -19.140403561325773 M-54.555718259676766 -19.140403561325773 C-54.25143767314797 -19.189597286824558, -53.94715708661918 -19.238791012323343, -53.32172965284788 -19.3399052695533 M-54.555718259676766 -19.140403561325773 C-54.0692163250815 -19.219057421232286, -53.582714390486224 -19.2977112811388, -53.32172965284788 -19.3399052695533 M-53.32172965284788 -19.3399052695533 C-52.8959186294586 -19.380982746866984, -52.47010760606931 -19.422060224180665, -52.0774942896239 -19.45993515863156 M-53.32172965284788 -19.3399052695533 C-52.98866210972877 -19.37203589486567, -52.65559456660966 -19.404166520178048, -52.0774942896239 -19.45993515863156 M-52.0774942896239 -19.45993515863156 C-51.78024946536644 -19.469467221593543, -51.48300464110898 -19.478999284555528, -50.82812500000001 -19.5 M-52.0774942896239 -19.45993515863156 C-51.69610717083912 -19.472165501205993, -51.31472005205434 -19.48439584378043, -50.82812500000001 -19.5 M-50.82812500000001 -19.5 C-50.82812500000001 -19.5, -50.828125 -19.5, -50.828125 -19.5 M-50.82812500000001 -19.5 C-50.82812500000001 -19.5, -50.828125 -19.5, -50.828125 -19.5" stroke="#9370DB" stroke-width="1.3" fill="none" stroke-dasharray="0 0" style=""/></g><g class="label" style="" transform="translate(-57.953125, -12)"><rect/><foreignObject width="115.90625" height="24"><div xmlns="http://www.w3.org/1999/xhtml" style="display: table-cell; white-space: nowrap; line-height: 1.5; max-width: 200px; text-align: center;"><span class="nodeLabel"><p>Install complete</p></span></div></foreignObject></g></g></g></g></g><defs><filter id="my-svg-drop-shadow" height="130%" width="130%"><feDropShadow dx="4" dy="4" stdDeviation="0" flood-opacity="0.06" flood-color="#000000"/></filter></defs><defs><filter id="my-svg-drop-shadow-small" height="150%" width="150%"><feDropShadow dx="2" dy="2" stdDeviation="0" flood-opacity="0.06" flood-color="#000000"/></filter></defs></svg>